<?xml version="1.0" encoding="UTF-8" standalone="no"?>
<!-- Created with Inkscape (http://www.inkscape.org/) -->

<svg
   width="21.967566mm"
   height="21.967566mm"
   viewBox="0 0 21.967566 21.967566"
   version="1.1"
   id="svg1"
   xml:space="preserve"
   sodipodi:docname="white_brand.svg"
   inkscape:version="1.4.2 (f4327f4, 2025-05-13)"
   xmlns:inkscape="http://www.inkscape.org/namespaces/inkscape"
   xmlns:sodipodi="http://sodipodi.sourceforge.net/DTD/sodipodi-0.dtd"
   xmlns:xlink="http://www.w3.org/1999/xlink"
   xmlns="http://www.w3.org/2000/svg"
   xmlns:svg="http://www.w3.org/2000/svg"><sodipodi:namedview
     id="namedview1"
     pagecolor="#505050"
     bordercolor="#eeeeee"
     borderopacity="1"
     inkscape:showpageshadow="0"
     inkscape:pageopacity="0"
     inkscape:pagecheckerboard="0"
     inkscape:deskcolor="#505050"
     inkscape:document-units="mm"
     inkscape:zoom="1.8066406"
     inkscape:cx="134.22703"
     inkscape:cy="85.517841"
     inkscape:window-width="1920"
     inkscape:window-height="1009"
     inkscape:window-x="-8"
     inkscape:window-y="-8"
     inkscape:window-maximized="1"
     inkscape:current-layer="g1"><inkscape:page
       x="-7.196222e-16"
       y="-1.2960465e-15"
       width="21.967567"
       height="21.967567"
       id="page2"
       margin="0"
       bleed="0" /></sodipodi:namedview><defs
     id="defs1"><linearGradient
       id="linearGradient2"
       inkscape:collect="always"><stop
         style="stop-color:#cc9b4c;stop-opacity:1;"
         offset="0"
         id="stop2" /><stop
         style="stop-color:#a98b36;stop-opacity:1;"
         offset="0.71340525"
         id="stop3" /></linearGradient><linearGradient
       inkscape:collect="always"
       xlink:href="#linearGradient2"
       id="linearGradient3"
       x1="-503.95544"
       y1="427.82935"
       x2="-210.41388"
       y2="464.638"
       gradientUnits="userSpaceOnUse"
       gradientTransform="translate(-40.406488,121.21946)" /><linearGradient
       inkscape:collect="always"
       xlink:href="#linearGradient2"
       id="linearGradient1"
       gradientUnits="userSpaceOnUse"
       gradientTransform="translate(-233.5461,20.383714)"
       x1="-503.95544"
       y1="427.82935"
       x2="-210.41388"
       y2="464.638" /></defs><g
     id="g1"
     transform="matrix(0.26458333,0,0,0.26458333,197.91142,-107.47333)"><path
       style="fill:url(#linearGradient3)"
       d="m -473.1086,578.8888 c -0.31871,-0.31871 -0.24813,-59.07629 0.0716,-59.58083 0.23163,-0.36555 0.31935,-0.36555 0.5551,0 0.30616,0.47473 0.4816,50.36834 0.1976,56.19416 -0.16449,3.37422 -0.29607,3.91486 -0.82426,3.38667 z m 71.46666,-4.06434 c -0.616,-0.18399 -1.53279,-0.79783 -2.03731,-1.36407 -0.56994,-0.63967 -1.11524,-0.96674 -1.44,-0.86371 -0.45137,0.1432 -0.45719,0.11871 -0.0427,-0.17946 0.43113,-0.31013 0.24339,-0.49457 -0.4,-0.39298 -0.132,0.0208 -0.204,-0.0998 -0.16,-0.26817 0.10594,-0.4053 -4.58498,-5.15627 -4.89929,-4.96201 -0.13415,0.0829 -0.25917,1.8239 -0.27781,3.86886 -0.0186,2.04496 -0.11192,3.84436 -0.20728,3.99866 -0.0954,0.1543 -0.56089,0.27835 -1.0345,0.27565 -1.76852,-0.0101 -1.80915,-0.14389 -1.86443,-6.14105 -0.0281,-3.04373 0.0159,-5.78605 0.0977,-6.09405 0.11497,-0.43293 0.49042,-0.56 1.65463,-0.56 1.49887,0 1.52476,0.0187 5.54379,4 2.22084,2.2 4.12548,4 4.23253,4 0.10706,0 0.19685,-1.62 0.19954,-3.6 0.003,-1.98 0.12536,-3.78996 0.27257,-4.02214 0.16773,-0.26452 0.73347,-0.38401 1.5151,-0.32 l 1.24743,0.10214 v 6.24 c 0,3.9434 -0.11777,6.24181 -0.32,6.2449 -0.176,0.003 -0.464,0.0875 -0.64,0.18843 -0.176,0.10095 -0.824,0.033 -1.44,-0.151 z m 138.72,-0.0324 c -2.06735,-0.51587 -4,-1.33921 -4,-1.70404 0,-0.15771 0.26869,-0.5299 0.5971,-0.8271 0.53835,-0.4872 0.73512,-0.49554 2,-0.0847 2.37096,0.77009 3.1756,0.88318 4.67934,0.65768 1.5545,-0.23311 2.73608,-1.11836 2.45844,-1.84189 -0.15914,-0.41471 -2.85955,-1.28032 -5.1262,-1.64319 -1.58119,-0.25314 -3.24442,-1.05825 -3.78728,-1.83328 -1.02522,-1.46371 -0.47182,-3.56506 1.19519,-4.53827 1.50119,-0.8764 6.19894,-1.07818 8.6175,-0.37014 2.17289,0.63612 2.46239,0.97118 1.56305,1.80904 -0.63893,0.59526 -0.76099,0.60172 -2.56022,0.13549 -2.57707,-0.66779 -3.94501,-0.61983 -4.95377,0.17366 -1.57923,1.24222 -0.81284,1.94542 2.7504,2.5236 3.97476,0.64496 5.93773,2.18076 5.5828,4.36792 -0.22504,1.38672 -0.6372,1.91882 -1.94043,2.50506 -0.83558,0.37587 -4.91127,1.21876 -5.34213,1.10481 -0.0736,-0.0195 -0.85379,-0.21505 -1.73379,-0.43465 z m -192.64,-0.0678 c -0.352,-0.0987 -1,-0.32929 -1.44,-0.51247 -0.44,-0.18318 -0.90429,-0.31104 -1.03177,-0.28412 -0.36276,0.0766 -1.95702,-1.61347 -2.48823,-2.63775 -0.29494,-0.56872 -0.47322,-1.75794 -0.46241,-3.08465 0.0149,-1.83051 0.14748,-2.32941 0.87105,-3.27807 0.46941,-0.61542 1.60577,-1.49384 2.52525,-1.95204 1.41051,-0.70288 2.09954,-0.8328 4.40894,-0.83129 2.89782,0.002 4.606,0.33454 5.63196,1.09679 0.61873,0.45969 0.61839,0.47144 -0.0329,1.1322 -0.64364,0.653 -0.70305,0.65617 -2.70054,0.14444 -4.38152,-1.12249 -7.36134,0.58471 -7.36134,4.21748 0,1.55207 0.55846,2.52398 1.87296,3.2596 1.62336,0.90847 3.15954,1.13085 4.84704,0.70166 2.89131,-0.73536 3.12142,-0.73872 3.48951,-0.0509 0.3012,0.5628 0.1924,0.74249 -0.83353,1.37655 -0.94962,0.5869 -1.71444,0.74417 -3.91797,0.80564 -1.5059,0.042 -3.02601,-0.004 -3.37801,-0.10303 z m 20.60323,-0.20573 c -1.93709,-0.72226 -3.08638,-1.75188 -3.91162,-3.50435 -0.67994,-1.44391 -0.7512,-1.89846 -0.52215,-3.33082 0.31536,-1.97207 0.5988,-2.54733 1.80301,-3.65931 1.59874,-1.4763 3.52398,-1.97433 7.05271,-1.82443 2.70834,0.11505 3.31446,0.24794 4.45519,0.97681 2.24821,1.43648 2.89486,2.53969 2.96858,5.06453 0.0837,2.86517 -0.73108,4.39256 -3.00895,5.64082 -1.37084,0.75122 -2.03539,0.89049 -4.64,0.97243 -1.98594,0.0625 -3.44108,-0.0539 -4.19677,-0.33568 z m 5.54862,-1.87578 c 2.46751,-0.73929 3.75744,-3.74373 2.58491,-6.02067 -0.67207,-1.30508 -2.87666,-2.56 -4.49731,-2.56 -1.47635,0 -3.49074,1.10157 -4.07285,2.22725 -0.94944,1.83601 -0.43019,4.67676 1.02969,5.63331 1.65761,1.08611 3.05581,1.28929 4.95556,0.72011 z m 42.00815,1.85325 c -0.704,-0.23035 -1.604,-0.52901 -2,-0.66369 -0.82326,-0.27999 -0.89303,-0.71496 -0.25067,-1.56287 0.42115,-0.55592 0.54445,-0.56253 1.98982,-0.10661 0.84747,0.26732 2.06679,0.57389 2.70959,0.68128 1.9605,0.32751 4.42146,-0.46398 4.42146,-1.42203 0,-0.59459 -0.79098,-1.02073 -2.72734,-1.46933 -3.23953,-0.75052 -5.56198,-1.72132 -6.10669,-2.55265 -0.64932,-0.99099 -0.64273,-2.40528 0.0159,-3.41044 0.55546,-0.84775 2.56555,-1.84758 3.71443,-1.84758 0.34844,0 0.63352,-0.1525 0.63352,-0.33888 0,-0.18639 -0.18,-0.23232 -0.4,-0.10207 -0.22,0.13025 0.176,-0.41992 0.88,-1.2226 2.45173,-2.7954 5.42233,-2.12965 3.22336,0.13455 -0.82591,0.85041 -1.29065,1.09209 -1.88249,0.97896 -0.43222,-0.0826 -0.86416,-0.0235 -0.95987,0.13134 -0.0957,0.15486 0.57141,0.31343 1.48249,0.35238 1.78914,0.0765 4.56354,0.87228 4.89158,1.40307 0.11143,0.18029 -0.0825,0.61291 -0.43096,0.96137 -0.60675,0.60675 -0.70565,0.61216 -2.33692,0.12772 -2.98911,-0.88767 -5.47586,-0.46037 -5.68347,0.9766 -0.10333,0.71514 0.69374,1.16138 2.81628,1.5767 4.16742,0.81545 6.4,2.1186 6.4,3.73566 0,1.21924 -0.9746,2.69351 -2.17077,3.28372 -1.51866,0.74932 -6.38325,0.95941 -8.22923,0.3554 z m 23.68,0.16482 c -3.54138,-0.9284 -5.64582,-3.84383 -5.15193,-7.13731 0.49101,-3.27434 2.20931,-4.62737 7.07193,-5.56864 l 1.28,-0.24777 -1.12,-0.18409 -1.12,-0.18408 1.37293,-1.35842 c 2.33004,-2.30543 5.11664,-1.59657 2.98759,0.3269 -0.7273,0.65707 -1.50195,1.19688 -1.72144,1.19957 -0.26483,0.003 -0.2376,0.10925 0.0809,0.3151 0.264,0.17061 0.91973,0.31241 1.45717,0.3151 1.43237,0.007 4.19068,1.50057 5.18894,2.80935 0.75961,0.9959 0.87482,1.45454 0.92103,3.66628 0.0519,2.48185 0.0328,2.54804 -1.04566,3.62646 -1.85516,1.85517 -3.44637,2.48597 -6.52148,2.58534 -1.496,0.0483 -3.152,-0.0254 -3.68,-0.16379 z m 5.80716,-2.43041 c 1.44631,-0.72151 2.15785,-2.2748 1.96438,-4.28823 -0.13178,-1.37149 -0.34403,-1.82558 -1.21797,-2.60584 -1.7671,-1.57767 -4.48746,-1.67993 -6.59278,-0.24782 -1.6055,1.09211 -2.03891,3.10679 -1.22978,5.71659 0.15174,0.48943 2.70899,2.13343 2.70899,1.74155 0,-0.10801 0.252,-0.0426 0.56,0.14543 0.67996,0.41503 2.48966,0.19558 3.80716,-0.46168 z m 14.33749,2.36683 c -0.12104,-0.19584 -0.26558,-10.46191 -0.17028,-12.09407 0.0381,-0.65268 9.32168,-0.34927 10.96074,0.35822 2.44906,1.05713 3.17408,4.13318 1.40855,5.976 -0.51499,0.53753 -1.19899,1.06069 -1.52,1.16257 -0.73176,0.23226 -0.73815,0.58198 -0.0237,1.2962 1.02957,1.02918 2.32,2.76996 2.3202,3.12992 1.3e-4,0.23041 -0.586,0.31542 -1.6615,0.24097 -1.29056,-0.0893 -1.79663,-0.28657 -2.26582,-0.88305 -0.33227,-0.42241 -0.72028,-0.69623 -0.86224,-0.60849 -0.14197,0.0877 -0.45444,-0.0909 -0.69438,-0.39695 -0.39478,-0.50358 -0.38302,-0.51473 0.12374,-0.1173 0.83243,0.65284 0.67751,-0.0589 -0.22472,-1.03245 -0.66689,-0.71959 -1.05129,-0.84673 -2.56,-0.84673 h -1.77528 v 1.92 c 0,1.056 -0.108,1.93503 -0.24,1.95339 -1.21471,0.16899 -2.69383,0.13839 -2.81535,-0.0582 z m 8.62734,-6.50283 c 0.67736,-0.28302 1.16356,-0.71595 1.18593,-1.056 0.13912,-2.11486 -0.68445,-2.65633 -4.04027,-2.65633 h -2.65146 l -0.0216,1.80914 c -0.0119,0.99503 0.0396,1.90816 0.11437,2.02917 0.27546,0.4457 4.26715,0.3528 5.41304,-0.12598 z m 16.98801,6.45691 c -0.704,-0.19086 -1.82536,-0.69021 -2.4919,-1.10966 -0.66655,-0.41945 -1.3728,-0.6632 -1.56944,-0.54166 -0.19853,0.12269 -0.269,0.0777 -0.15847,-0.10115 0.1095,-0.17716 -0.0843,-0.87786 -0.43055,-1.5571 -0.3463,-0.67925 -0.62964,-1.84963 -0.62964,-2.60085 0,-1.49061 0.83848,-3.93882 1.34898,-3.93882 0.17572,0 0.23374,-0.22348 0.12892,-0.49662 -0.1155,-0.30099 -0.058,-0.41469 0.14593,-0.28865 0.18508,0.11438 0.60181,-0.0321 0.92608,-0.32559 1.57591,-1.42618 7.17523,-1.91904 9.90366,-0.87174 1.60312,0.61536 1.7997,0.92462 1.14145,1.79575 -0.43004,0.56913 -0.56138,0.58062 -1.82916,0.16 -0.75122,-0.24923 -2.22986,-0.44907 -3.28586,-0.44409 -3.27984,0.0155 -4.85084,1.53099 -4.73837,4.571 0.0978,2.64375 1.79668,3.99043 5.08911,4.03408 1.07291,0.0142 2.15291,-0.13334 2.4,-0.32792 0.9201,-0.72456 1.87491,-0.7349 2.37166,-0.0257 0.26268,0.37503 0.4776,0.77072 0.4776,0.87931 0,0.19725 -1.33312,0.91073 -2.24,1.19884 -1.02683,0.32622 -5.34483,0.32 -6.56,-0.009 z m 17.03318,0.16886 c -0.52147,-0.13584 -0.55988,-0.63855 -0.48,-6.28288 l 0.0868,-6.13522 h 1.44 1.44 l 0.0873,6.05662 c 0.0667,4.63144 -0.009,6.11745 -0.32,6.3151 -0.43061,0.27329 -1.31331,0.29146 -2.25409,0.0464 z m 15.65108,-0.006 c -1.11165,-0.28592 -3.49786,-1.8561 -4.1518,-2.73199 -0.68745,-0.92077 -1.09925,-4.0137 -0.73017,-5.48421 0.32016,-1.27561 1.81529,-2.79364 3.54463,-3.59893 1.26831,-0.5906 2.16023,-0.75143 4.17308,-0.75249 3.86125,-0.002 6.07349,0.84957 7.61549,2.93156 0.64608,0.87233 1.31385,5.38353 0.7969,5.38353 -0.13882,0 -0.25239,0.21584 -0.25239,0.47964 0,0.97063 -2.36313,2.9571 -4.14857,3.48732 -1.60889,0.47779 -5.47321,0.63896 -6.84717,0.28557 z m 4.71823,-2.04109 c 1.38775,-0.38532 2.94067,-1.8859 3.16475,-3.05808 0.20425,-1.06846 -0.32739,-3.70449 -0.80922,-4.01234 -0.21891,-0.13986 -0.5855,-0.18546 -0.81464,-0.10132 -0.22914,0.0841 -0.33841,0.0264 -0.24282,-0.12824 0.35299,-0.57115 -2.09262,-1.39406 -3.54955,-1.19436 -2.61962,0.35906 -3.87298,1.77097 -3.87298,4.3629 0,2.35844 0.8408,3.49004 3.10328,4.17657 1.1608,0.35223 1.61448,0.34546 3.02118,-0.0451 z m -257.40248,-3.97144 c 0,-2.904 -0.021,-5.388 -0.0466,-5.52 -0.0517,-0.26627 1.45945,-0.56495 4.36661,-0.86306 1.056,-0.10829 2.46,-0.27705 3.12,-0.37504 1.01483,-0.15066 1.20084,-0.0874 1.20547,0.40997 0.0194,2.08289 0.0299,10.31518 0.0139,10.90813 -0.0191,0.71016 -0.0785,0.72 -4.33938,0.72 h -4.32 z m 14.57468,4.88907 c -0.0727,-0.22499 -0.10576,-3.79089 -0.0734,-7.92423 l 0.0588,-7.51517 0.88318,-0.42382 c 0.48575,-0.2331 1.13375,-0.48046 1.44,-0.54968 0.30625,-0.0692 1.8371,-0.5732 3.40189,-1.11994 1.62581,-0.56806 2.96508,-0.87407 3.12509,-0.71407 0.154,0.15401 0.24172,4.37452 0.19492,9.37893 l -0.0851,9.09891 -4.40657,0.0891 c -3.35799,0.0679 -4.43801,-0.008 -4.53875,-0.32 z m 14.86532,-11.43673 v -11.82767 l 1.36,-0.35446 c 0.748,-0.19495 2.60046,-0.68907 4.11659,-1.09804 1.51613,-0.40898 2.91574,-0.64523 3.11025,-0.52502 0.38245,0.23637 0.59042,24.70243 0.21514,25.30964 -0.11846,0.19168 -1.95013,0.32321 -4.50087,0.32321 h -4.30111 z m 14.65189,-3.44313 c -0.0505,-8.40907 -0.0199,-15.86521 0.0681,-16.56921 0.13421,-1.07374 0.28891,-1.29569 0.96,-1.37736 0.44,-0.0535 2.23128,-0.45106 3.98064,-0.88336 1.74935,-0.43229 3.29863,-0.66801 3.44283,-0.5238 0.14421,0.14421 0.22492,7.95772 0.17936,17.36336 l -0.0828,17.10116 -4.22811,0.0892 -4.2281,0.0892 z m -50.49189,-0.99281 c 0,-0.14498 1.26,-0.67058 2.8,-1.16801 3.12464,-1.00927 8.02714,-2.82278 9.56836,-3.53948 0.5546,-0.2579 1.09753,-0.46891 1.20652,-0.46891 0.7005,0 12.56222,-5.9245 16.18512,-8.08388 2.9216,-1.74139 9.9764,-6.30105 10.24,-6.61832 0.088,-0.10592 0.592,-0.46583 1.12,-0.7998 1.67301,-1.05822 3.99063,-3.13426 3.81544,-3.41773 -0.0928,-0.15012 0.0391,-0.1932 0.29305,-0.0957 0.51052,0.1959 1.79616,-0.82467 5.17151,-4.10525 1.92895,-1.87479 2.16458,-2.2212 1.69688,-2.49464 -0.92111,-0.53853 -2.49688,-1.94682 -2.49688,-2.23151 0,-0.42272 0.80545,-0.58314 5.55052,-1.10544 7.3386,-0.80778 7.17992,-0.84595 6.61978,1.59232 -0.16173,0.704 -0.38327,2 -0.4923,2.88 -0.10904,0.88 -0.3251,2.032 -0.48013,2.56 -0.15503,0.528 -0.43952,1.572 -0.63221,2.32 -0.19268,0.748 -0.47984,1.36 -0.63812,1.36 -0.15828,0 -0.75314,-0.648 -1.32191,-1.44 -0.56877,-0.792 -1.13952,-1.44 -1.26834,-1.44 -0.51683,0 -4.10738,3.30952 -3.91981,3.61301 0.11506,0.18618 0.0433,0.22815 -0.16748,0.0979 -0.40524,-0.25046 -1.74193,0.53809 -1.48797,0.87779 0.0869,0.11622 0.0682,0.14553 -0.0415,0.0651 -0.34045,-0.24943 -2.36639,1.47776 -2.14794,1.83121 0.11347,0.18361 0.0618,0.24452 -0.11482,0.13536 -0.17663,-0.10916 -1.27382,0.42724 -2.43819,1.192 -1.16437,0.76477 -2.30211,1.47896 -2.5283,1.5871 -0.22619,0.10815 -1.34725,0.79206 -2.49125,1.51982 -2.75783,1.75438 -10.35983,5.70756 -13.76,7.15544 -1.496,0.63703 -3.08,1.31871 -3.52,1.51483 -0.44,0.19613 -0.944,0.40238 -1.12,0.45833 -0.176,0.056 -1.976,0.68981 -4,1.40855 -2.024,0.71874 -4.5422,1.56166 -5.59599,1.87316 -1.17068,0.34606 -1.73083,0.6439 -1.44,0.76567 0.26179,0.10961 0.10859,0.12458 -0.34045,0.0333 -0.44904,-0.0913 -1.88904,0.13414 -3.2,0.50103 -2.34337,0.65582 -7.86889,1.9304 -8.36858,1.9304 -0.14024,0 -0.25498,-0.11862 -0.25498,-0.2636 z"
       id="path2"
       sodipodi:nodetypes="ssssssssssssssssssssscsscscsssssssssssssssssssssssssssscsssssssssssssssssssssssssssssssssssssssssssssssssssssssscccsscscsssssssssssscssssssssssssssscssssssscsssscsssssssscssssssssssccsscccccssssssssssssssssssssssscssscscscccssssscsccccssssscccscssscccccssssssscsssssssssssscscssssssscsssssscc"
       inkscape:export-filename="white_brand.svg"
       inkscape:export-xdpi="96"
       inkscape:export-ydpi="96" /><g
       id="g3"><circle
         style="fill:#192438;stroke-width:8.69291"
         id="path3"
         cx="-706.49817"
         cy="447.71191"
         r="41.513515" /><path
         d="m -731.10154,467.86591 c 0,-2.904 -0.021,-5.388 -0.0466,-5.52 -0.0517,-0.26627 1.45945,-0.56495 4.36661,-0.86306 1.056,-0.10829 2.46,-0.27705 3.12,-0.37504 1.01483,-0.15066 1.20084,-0.0874 1.20547,0.40997 0.0194,2.08289 0.0299,10.31518 0.0139,10.90813 -0.0191,0.71016 -0.0785,0.72 -4.33938,0.72 h -4.32 z m 14.57468,4.88907 c -0.0727,-0.22499 -0.10576,-3.79089 -0.0734,-7.92423 l 0.0588,-7.51517 0.88318,-0.42382 c 0.48575,-0.2331 1.13375,-0.48046 1.44,-0.54968 0.30625,-0.0692 1.8371,-0.5732 3.40189,-1.11994 1.62581,-0.56806 2.96508,-0.87407 3.12509,-0.71407 0.154,0.15401 0.24172,4.37452 0.19492,9.37893 l -0.0851,9.09891 -4.40657,0.0891 c -3.35799,0.0679 -4.43801,-0.008 -4.53875,-0.32 z m 14.86532,-11.43673 v -11.82767 l 1.36,-0.35446 c 0.748,-0.19495 2.60046,-0.68907 4.11659,-1.09804 1.51613,-0.40898 2.91574,-0.64523 3.11025,-0.52502 0.38245,0.23637 0.59042,24.70243 0.21514,25.30964 -0.11846,0.19168 -1.95013,0.32321 -4.50087,0.32321 h -4.30111 z m 14.65189,-3.44313 c -0.0505,-8.40907 -0.0199,-15.86521 0.0681,-16.56921 0.13421,-1.07374 0.28891,-1.29569 0.96,-1.37736 0.44,-0.0535 2.23128,-0.45106 3.98064,-0.88336 1.74935,-0.43229 3.29863,-0.66801 3.44283,-0.5238 0.14421,0.14421 0.22492,7.95772 0.17936,17.36336 l -0.0828,17.10116 -4.22811,0.0892 -4.2281,0.0892 z m -50.49189,-0.99281 c 0,-0.14498 1.26,-0.67058 2.8,-1.16801 3.12464,-1.00927 8.02714,-2.82278 9.56836,-3.53948 0.5546,-0.2579 1.09753,-0.46891 1.20652,-0.46891 0.7005,0 12.56222,-5.9245 16.18512,-8.08388 2.9216,-1.74139 9.9764,-6.30105 10.24,-6.61832 0.088,-0.10592 0.592,-0.46583 1.12,-0.7998 1.67301,-1.05822 3.99063,-3.13426 3.81544,-3.41773 -0.0928,-0.15012 0.0391,-0.1932 0.29305,-0.0957 0.51052,0.1959 1.79616,-0.82467 5.17151,-4.10525 1.92895,-1.87479 2.16458,-2.2212 1.69688,-2.49464 -0.92111,-0.53853 -2.49688,-1.94682 -2.49688,-2.23151 0,-0.42272 0.80545,-0.58314 5.55052,-1.10544 7.3386,-0.80778 7.17992,-0.84595 6.61978,1.59232 -0.16173,0.704 -0.38327,2 -0.4923,2.88 -0.10904,0.88 -0.3251,2.032 -0.48013,2.56 -0.15503,0.528 -0.43952,1.572 -0.63221,2.32 -0.19268,0.748 -0.47984,1.36 -0.63812,1.36 -0.15828,0 -0.75314,-0.648 -1.32191,-1.44 -0.56877,-0.792 -1.13952,-1.44 -1.26834,-1.44 -0.51683,0 -4.10738,3.30952 -3.91981,3.61301 0.11506,0.18618 0.0433,0.22815 -0.16748,0.0979 -0.40524,-0.25046 -1.74193,0.53809 -1.48797,0.87779 0.0869,0.11622 0.0682,0.14553 -0.0415,0.0651 -0.34045,-0.24943 -2.36639,1.47776 -2.14794,1.83121 0.11347,0.18361 0.0618,0.24452 -0.11482,0.13536 -0.17663,-0.10916 -1.27382,0.42724 -2.43819,1.192 -1.16437,0.76477 -2.30211,1.47896 -2.5283,1.5871 -0.22619,0.10815 -1.34725,0.79206 -2.49125,1.51982 -2.75783,1.75438 -10.35983,5.70756 -13.76,7.15544 -1.496,0.63703 -3.08,1.31871 -3.52,1.51483 -0.44,0.19613 -0.944,0.40238 -1.12,0.45833 -0.176,0.056 -1.976,0.68981 -4,1.40855 -2.024,0.71874 -4.5422,1.56166 -5.59599,1.87316 -1.17068,0.34606 -1.73083,0.6439 -1.44,0.76567 0.26179,0.10961 0.10859,0.12458 -0.34045,0.0333 -0.44904,-0.0913 -1.88904,0.13414 -3.2,0.50103 -2.34337,0.65582 -7.86889,1.9304 -8.36858,1.9304 -0.14024,0 -0.25498,-0.11862 -0.25498,-0.2636 z"
         style="fill:url(#linearGradient1)"
         id="path1-8" /></g><path
       d="m -432.19106,551.08507 c -0.0732,-0.0733 -0.13305,-6.15733 -0.13305,-13.52 V 524.1784 h 11.21295 11.21294 l -0.093,2.64 -0.0929,2.64 -7.6,0.0858 -7.6,0.0858 v 2.38784 2.38784 l 6.8,0.0864 6.8,0.0864 v 2.56 2.56 l -6.8,0.0864 -6.8,0.0864 v 2.86795 2.86794 l 7.75605,0.0857 7.75604,0.0857 -0.0483,2.24 c -0.0266,1.232 -0.0608,2.41634 -0.076,2.63187 -0.0212,0.29924 -2.64356,0.4127 -11.09466,0.48 -6.08682,0.0485 -11.12682,0.0281 -11.2,-0.0452 z m 58.88028,0 c -0.0733,-0.0733 -0.13333,-6.14807 -0.13333,-13.49941 v -13.36608 l 3.388,-0.10059 c 1.8634,-0.0553 3.4474,-0.0406 3.52,0.0328 0.0726,0.0733 0.132,4.93068 0.132,10.7941 v 10.66077 l 7.44,0.0859 7.44,0.0859 0.0929,2.64 c 0.0511,1.452 -0.0209,2.64198 -0.16,2.6444 -5.85926,0.1018 -21.62393,0.11796 -21.71961,0.0223 z m 93.94524,0.0267 c -0.30642,-0.1026 -0.48922,-26.3355 -0.18564,-26.64 0.0731,-0.0733 5.07711,-0.0613 11.12,0.0267 l 10.98707,0.16 0.0968,1.50324 c 0.10756,1.66959 -0.50295,4.41411 -0.85515,3.84424 -0.15701,-0.25405 -2.35037,-0.35237 -7.33286,-0.32869 l -7.10884,0.0338 v 2.50735 2.50734 l 6.76286,0.0864 6.76286,0.0864 -0.0215,1.68 c -0.0118,0.924 -0.0311,2.112 -0.0429,2.64 l -0.0213,0.96 h -6.73246 -6.73246 l 0.0925,2.8 0.0925,2.8 7.57858,-0.006 7.57857,-0.006 0.10143,2.63919 0.10142,2.63918 -10.96143,0.0872 c -6.02878,0.048 -11.10478,0.0392 -11.28,-0.0195 z m -184.09442,-0.25586 c -0.2539,-0.2539 -0.31285,-25.75335 -0.0611,-26.41131 0.26861,-0.70186 19.21456,-0.28357 21.65294,0.47807 2.58036,0.80598 3.809,1.74324 4.87196,3.71652 0.81104,1.5056 0.92621,2.04897 0.91379,4.31099 -0.009,1.65781 -0.202,3.02334 -0.5366,3.79857 -0.50918,1.17969 -3.20317,4.14504 -3.49793,3.85027 -0.16674,-0.16674 -2.12726,0.788 -2.12726,1.03594 0,0.31414 2.38137,3.34347 2.62831,3.34347 0.13843,0 0.25236,0.18 0.25317,0.4 8.2e-4,0.22 0.46882,0.89871 1.04,1.50825 0.57119,0.60953 1.03899,1.18553 1.03957,1.28 5.7e-4,0.0945 0.39657,0.68934 0.88,1.32196 0.48342,0.63261 0.87895,1.24461 0.87895,1.36 0,0.11538 -1.70289,0.20979 -3.78422,0.20979 -3.61015,0 -3.81836,-0.0363 -4.52651,-0.79014 -0.40826,-0.43457 -0.88761,-0.70032 -1.06522,-0.59055 -0.18059,0.11161 -0.22475,0.0407 -0.10019,-0.16083 0.29344,-0.47479 -0.73709,-2.03279 -1.1683,-1.76629 -0.18394,0.11368 -0.24289,0.0586 -0.13099,-0.12249 0.11189,-0.18105 -0.18035,-0.7433 -0.64942,-1.24944 -0.46908,-0.50614 -0.81579,-0.96531 -0.77046,-1.02037 0.0453,-0.0551 -0.32419,-0.58198 -0.82114,-1.17093 -0.49695,-0.58896 -1.09059,-1.33757 -1.31919,-1.66359 -0.34486,-0.4918 -0.91713,-0.60717 -3.36,-0.67739 -1.6194,-0.0465 -3.11997,0.0329 -3.3346,0.17655 -0.26674,0.17853 -0.41865,1.62425 -0.48,4.56833 l -0.0898,4.30714 -3.05585,0.0908 c -1.68072,0.0499 -3.15672,-0.0101 -3.28,-0.13334 z m 18.45387,-14.7219 c 1.28082,-0.61078 1.80198,-1.56985 1.80198,-3.31609 0,-1.37222 -1.03777,-2.72886 -2.33128,-3.04759 -0.38979,-0.096 -3.08472,-0.13351 -5.98872,-0.0833 l -5.28,0.0914 -0.0908,3.44 -0.0908,3.44 h 5.43997 c 4.37965,0 5.65432,-0.10222 6.5397,-0.52442 z m 37.00198,14.57089 c 0,-0.19444 0.36365,-1.07752 0.8081,-1.96241 0.48938,-0.97434 0.73354,-1.87614 0.61904,-2.28648 -0.13725,-0.49188 -0.1052,-0.55636 0.11692,-0.2353 0.24279,0.35095 0.35352,0.29248 0.53622,-0.28316 0.12664,-0.39899 0.77846,-1.89401 1.44849,-3.32228 3.11692,-6.64411 6.44066,-14.17001 6.48188,-14.67684 0.025,-0.308 0.14117,-0.56 0.25804,-0.56 0.11688,0 0.52224,-0.72 0.9008,-1.6 l 0.6883,-1.6 h 4.2964 4.29639 l 0.87334,1.90266 c 0.48033,1.04645 1.0132,1.81621 1.18415,1.71055 0.17941,-0.11088 0.20702,-0.0242 0.0653,0.20515 -0.31692,0.51278 0.77273,2.948 1.20073,2.68348 0.17863,-0.1104 0.22856,-0.045 0.11096,0.14524 -0.26111,0.42249 2.387,6.49088 2.73785,6.27404 0.13736,-0.0849 0.15493,0.0927 0.039,0.39476 -0.15428,0.40204 -0.0972,0.47895 0.21311,0.28717 0.2761,-0.17064 0.34722,-0.138 0.20405,0.0937 -0.12087,0.19557 0.12863,1.04582 0.55445,1.88944 0.42582,0.84362 0.96962,2.00185 1.20844,2.57385 0.23882,0.572 0.55157,1.04 0.69499,1.04 0.14343,0 0.17725,0.13514 0.0752,0.30032 -0.26696,0.43194 1.80664,4.50111 2.17705,4.27218 0.17032,-0.10526 0.20953,-0.0294 0.0871,0.16866 -0.12239,0.19803 -6.4e-4,0.78912 0.27056,1.31355 0.27119,0.52443 0.49307,1.10466 0.49307,1.2894 0,0.21586 -1.37222,0.33589 -3.84,0.33589 -2.48933,0 -3.84,-0.1192 -3.84,-0.33888 0,-0.18639 -0.14235,-0.25091 -0.31633,-0.14338 -0.1879,0.11613 -0.23078,-0.0274 -0.10562,-0.35361 0.15428,-0.40204 0.0972,-0.47896 -0.21311,-0.28718 -0.29142,0.18011 -0.34775,0.13885 -0.18032,-0.13206 0.13641,-0.22071 -0.1585,-1.29418 -0.67056,-2.44084 l -0.91406,-2.04684 -6.41571,-0.009 -6.41572,-0.009 -0.39007,1.07874 c -0.21455,0.5933 -0.30189,1.3493 -0.1941,1.68 0.13469,0.41323 0.10443,0.47432 -0.0967,0.19536 -0.20949,-0.29051 -0.50656,0.0507 -1.04488,1.2 l -0.75217,1.6059 h -3.6253 c -2.43274,0 -3.6253,-0.11629 -3.6253,-0.35353 z m 20.06106,-10.91166 c -3.40561,-7.90188 -3.88781,-8.87301 -4.16226,-8.38259 -0.3077,0.54981 -3.7388,8.44857 -3.7388,8.60709 0,0.0508 1.81797,0.11444 4.03992,0.14137 3.20124,0.0388 4.00281,-0.0372 3.86114,-0.36587 z m 39.78583,-2.36308 c 0.0165,-11.57723 0.0861,-13.57288 0.46287,-13.26022 0.2783,0.23096 1.55468,0.34356 3.42686,0.30231 l 2.98338,-0.0657 0.16,13.3261 0.16,13.32611 -3.60626,-1.5e-4 -3.60625,-1.5e-4 z m 11.19311,11.26561 v -2.36266 l 7.07311,-7.05433 c 4.06727,-4.05648 6.98093,-7.20347 6.85621,-7.40527 -0.11929,-0.19301 -0.0982,-0.33031 0.0469,-0.30511 0.72486,0.12592 1.11469,-0.0757 0.95431,-0.49367 -0.11449,-0.29836 -0.0241,-0.40468 0.2534,-0.29819 0.23723,0.091 0.52066,0.021 0.62984,-0.15567 0.13055,-0.21123 -2.44841,-0.33143 -7.53318,-0.35108 -4.25243,-0.0164 -7.8552,-0.10622 -8.00614,-0.19951 -0.15095,-0.0933 -0.27445,-1.38512 -0.27445,-2.87073 v -2.70112 h 12.64 12.64 v 2.65506 2.65506 l -1.26675,1.23694 c -0.69671,0.68032 -1.17846,1.37979 -1.07055,1.55439 0.1079,0.17459 0.0533,0.22915 -0.12125,0.12125 -0.41557,-0.25683 -2.74928,2.13533 -2.42796,2.48876 0.13558,0.14913 0.0899,0.18203 -0.10149,0.0731 -0.3575,-0.20346 -2.91567,2.18754 -2.772,2.59086 0.044,0.12352 -0.028,0.22679 -0.16,0.22948 -0.49876,0.0102 -1.04295,0.53144 -0.86143,0.82514 0.10395,0.1682 -0.002,0.26625 -0.23478,0.21789 -0.23309,-0.0484 -0.38422,0.10278 -0.33586,0.33586 0.0484,0.23308 -0.0433,0.34267 -0.20374,0.24352 -0.33701,-0.20828 -1.07662,0.56714 -0.84141,0.88214 0.0865,0.1158 0.0625,0.1398 -0.0533,0.0533 -0.315,-0.23521 -1.09041,0.5044 -0.88213,0.84141 0.0991,0.16042 -0.0104,0.2521 -0.24352,0.20374 -0.23309,-0.0484 -0.38779,0.0921 -0.34379,0.31207 0.044,0.22 -0.1,0.364 -0.32,0.32 -0.22,-0.044 -0.36043,0.11071 -0.31207,0.34379 0.0484,0.23308 -0.0404,0.34448 -0.19723,0.24754 -0.37778,-0.23347 -1.40108,0.91163 -1.0914,1.22131 0.13239,0.13238 0.0247,0.1927 -0.2393,0.13403 -0.26574,-0.0591 -0.44075,0.0825 -0.39207,0.31712 0.0484,0.23308 -0.0433,0.34267 -0.20374,0.24352 -0.16042,-0.0991 -0.4675,0.0316 -0.68241,0.29055 -0.34185,0.4119 0.6046,0.48153 7.56374,0.55648 l 7.95448,0.0857 0.0929,2.64 0.0929,2.64 h -12.81294 -12.81294 z m 28.48,0.0276 c 0,-2.29756 0.0203,-2.35488 1.26367,-3.569 0.69502,-0.67867 1.23502,-1.31989 1.2,-1.42494 -0.035,-0.10506 0.0374,-0.19101 0.16091,-0.19101 0.42828,0 2.78806,-2.50538 2.61838,-2.77993 -0.0938,-0.15176 -0.045,-0.23636 0.10835,-0.188 0.44413,0.14004 2.34828,-1.59673 2.25407,-2.05593 -0.047,-0.22888 0.098,-0.379 0.32218,-0.33362 0.44467,0.09 2.52221,-2.11639 2.39244,-2.54085 -0.044,-0.14392 0.0348,-0.22567 0.17509,-0.18167 0.35001,0.10977 2.3363,-1.58582 2.23029,-1.90386 -0.047,-0.14088 0.0376,-0.27687 0.18793,-0.3022 0.15032,-0.0253 0.91269,-0.67333 1.69417,-1.44 l 1.42086,-1.39394 -7.93417,-0.16 -7.93417,-0.16 -0.0974,-2.22906 c -0.17233,-3.94574 -1.67886,-3.54406 12.9158,-3.44366 l 12.68664,0.0873 -0.11254,2.63273 -0.11254,2.63272 -1.67482,1.55894 c -0.92115,0.85742 -1.5829,1.70767 -1.47055,1.88945 0.11234,0.18177 0.0565,0.23917 -0.12412,0.12755 -0.43961,-0.27169 -3.68565,3.24359 -3.4088,3.69154 0.13454,0.2177 0.069,0.25985 -0.17218,0.11077 -0.47632,-0.29438 -8.42002,7.44881 -8.12741,7.92227 0.10822,0.1751 0.0405,0.22177 -0.15056,0.10371 -0.19104,-0.11807 -0.43778,-0.0683 -0.54833,0.11055 -0.13411,0.21699 2.46765,0.32522 7.81789,0.32522 h 8.01888 v 2.72 2.72 h -12.8 -12.8 z"
       style="fill:#192438;fill-opacity:1"
       id="path1" /></g></svg>
