<svg width="234" height="119" viewBox="0 0 234 119" fill="none" xmlns="http://www.w3.org/2000/svg">
<path d="M4.95505 110.973H4.47937L1.71248 118.909H0.107056L3.37341 109.666H6.03326L9.31547 118.909H7.70608L4.95109 110.973H4.95505ZM1.89879 115.354H7.274V116.649H1.89879V115.354Z" fill="#EAAF7F"/>
<path d="M18.9361 112.45C18.9361 112.784 18.8806 113.114 18.7657 113.439C18.6507 113.765 18.4684 114.067 18.2107 114.345C17.957 114.623 17.6201 114.842 17.2038 115.004C16.7876 115.167 16.2802 115.247 15.6817 115.247H13.6402V118.905H12.0704V109.662H15.6817C16.419 109.662 17.0294 109.789 17.5051 110.039C17.9848 110.29 18.3415 110.631 18.5794 111.056C18.8172 111.485 18.9361 111.946 18.9361 112.45ZM15.6817 113.944C16.0662 113.944 16.3833 113.884 16.6251 113.765C16.8669 113.646 17.0492 113.475 17.1721 113.249C17.295 113.022 17.3584 112.756 17.3584 112.45C17.3584 111.986 17.2237 111.62 16.9501 111.362C16.6766 111.104 16.2564 110.973 15.6856 110.973H13.6441V113.944H15.6856H15.6817Z" fill="#EAAF7F"/>
<path d="M26.3132 119C25.6631 119 25.0527 118.885 24.4818 118.659C23.911 118.428 23.4116 118.106 22.9874 117.689C22.5593 117.272 22.2263 116.776 21.9845 116.196C21.7427 115.62 21.6238 114.984 21.6238 114.289C21.6238 113.594 21.7427 112.971 21.9845 112.395C22.2263 111.819 22.5593 111.318 22.9874 110.897C23.4116 110.476 23.911 110.151 24.4818 109.92C25.0527 109.69 25.6631 109.579 26.3132 109.579C26.9633 109.579 27.5698 109.694 28.1367 109.92C28.7035 110.151 29.199 110.476 29.6271 110.897C30.0552 111.318 30.3882 111.819 30.63 112.395C30.8718 112.971 30.9908 113.602 30.9908 114.289C30.9908 114.977 30.8718 115.62 30.63 116.196C30.3882 116.772 30.0552 117.268 29.6271 117.689C29.203 118.106 28.7035 118.432 28.1367 118.659C27.5698 118.889 26.9633 119 26.3132 119ZM26.3132 117.666C26.9118 117.666 27.443 117.527 27.9068 117.248C28.3705 116.97 28.7352 116.581 29.0008 116.073C29.2624 115.568 29.3972 114.969 29.3972 114.285C29.3972 113.602 29.2664 112.991 29.0008 112.49C28.7352 111.99 28.3745 111.6 27.9068 111.322C27.443 111.044 26.9078 110.905 26.3132 110.905C25.7186 110.905 25.1835 111.044 24.7197 111.322C24.2559 111.6 23.8872 111.99 23.6177 112.49C23.3481 112.991 23.2173 113.59 23.2173 114.285C23.2173 114.98 23.3521 115.568 23.6177 116.073C23.8833 116.577 24.2519 116.97 24.7197 117.248C25.1835 117.527 25.7146 117.666 26.3132 117.666Z" fill="#EAAF7F"/>
<path d="M34.1263 109.666H35.696V118.909H34.1263V109.666Z" fill="#EAAF7F"/>
<path d="M43.5487 119C42.8986 119 42.2882 118.885 41.7174 118.659C41.1466 118.428 40.6471 118.106 40.2229 117.689C39.7948 117.272 39.4618 116.776 39.22 116.196C38.9782 115.62 38.8593 114.984 38.8593 114.289C38.8593 113.594 38.9782 112.971 39.22 112.395C39.4618 111.819 39.7948 111.318 40.2229 110.897C40.6471 110.476 41.1466 110.151 41.7174 109.92C42.2882 109.69 42.8986 109.579 43.5487 109.579C44.1988 109.579 44.8053 109.694 45.3722 109.92C45.9391 110.151 46.4346 110.476 46.8627 110.897C47.2908 111.318 47.6238 111.819 47.8656 112.395C48.1074 112.971 48.2263 113.602 48.2263 114.289C48.2263 114.977 48.1074 115.62 47.8656 116.196C47.6238 116.772 47.2908 117.268 46.8627 117.689C46.4385 118.106 45.9391 118.432 45.3722 118.659C44.8053 118.889 44.1988 119 43.5487 119ZM43.5487 117.666C44.1473 117.666 44.6785 117.527 45.1423 117.248C45.6061 116.97 45.9708 116.581 46.2364 116.073C46.498 115.568 46.6328 114.969 46.6328 114.285C46.6328 113.602 46.5019 112.991 46.2364 112.49C45.9708 111.99 45.61 111.6 45.1423 111.322C44.6785 111.044 44.1434 110.905 43.5487 110.905C42.9541 110.905 42.419 111.044 41.9552 111.322C41.4914 111.6 41.1228 111.99 40.8532 112.49C40.5837 112.991 40.4529 113.59 40.4529 114.285C40.4529 114.98 40.5876 115.568 40.8532 116.073C41.1188 116.577 41.4875 116.97 41.9552 117.248C42.419 117.527 42.9502 117.666 43.5487 117.666Z" fill="#EAAF7F"/>
<path d="M63.6146 112.45C63.6146 112.784 63.5591 113.114 63.4442 113.439C63.3292 113.765 63.1469 114.067 62.8892 114.345C62.6355 114.623 62.2986 114.842 61.8823 115.004C61.4661 115.167 60.9587 115.247 60.3602 115.247H58.3187V118.905H56.7489V109.662H60.3602C61.0975 109.662 61.7079 109.789 62.1836 110.039C62.6632 110.29 63.02 110.631 63.2579 111.056C63.4957 111.485 63.6146 111.946 63.6146 112.45ZM60.3602 113.944C60.7447 113.944 61.0618 113.884 61.3036 113.765C61.5454 113.646 61.7277 113.475 61.8506 113.249C61.9735 113.022 62.0369 112.756 62.0369 112.45C62.0369 111.986 61.9022 111.62 61.6286 111.362C61.3551 111.104 60.9349 110.973 60.3641 110.973H58.3226V113.944H60.3641H60.3602Z" fill="#EAAF7F"/>
<path d="M70.1116 110.973H69.6359L66.8691 118.909H65.2597L68.526 109.666H71.1859L74.4681 118.909H72.8587L70.1037 110.973H70.1116ZM67.0554 115.354H72.4306V116.649H67.0554V115.354Z" fill="#EAAF7F"/>
<path d="M80.8383 109.666C81.5756 109.666 82.186 109.793 82.6617 110.043C83.1414 110.294 83.4981 110.635 83.736 111.06C83.9738 111.489 84.0927 111.95 84.0927 112.454C84.0927 112.788 84.0372 113.118 83.9223 113.443C83.8073 113.769 83.625 114.071 83.3673 114.349C83.1136 114.627 82.7767 114.845 82.3605 115.008C81.9442 115.171 81.4368 115.251 80.8383 115.251H78.7968V118.909H77.2271V109.666H80.8383ZM82.5111 112.45C82.5111 111.994 82.3763 111.632 82.1028 111.366C81.8293 111.1 81.4091 110.969 80.8383 110.969H78.7968V113.94H80.8383C81.2228 113.94 81.5399 113.88 81.7817 113.761C82.0235 113.642 82.2059 113.471 82.3287 113.245C82.4516 113.018 82.5151 112.752 82.5151 112.446L82.5111 112.45ZM81.7738 114.734L84.2909 118.905H82.5269L80.101 114.734H81.7738Z" fill="#EAAF7F"/>
<path d="M91.4301 110.973H90.9544L88.1875 118.909H86.5782L89.8445 109.666H92.5044L95.7866 118.909H94.1772L91.4222 110.973H91.4301ZM88.3739 115.354H93.7491V116.649H88.3739V115.354Z" fill="#EAAF7F"/>
<path d="M108.154 119C107.504 119 106.894 118.885 106.323 118.659C105.752 118.428 105.253 118.106 104.829 117.689C104.4 117.272 104.067 116.776 103.826 116.196C103.584 115.62 103.465 114.984 103.465 114.289C103.465 113.594 103.584 112.971 103.826 112.395C104.067 111.819 104.4 111.318 104.829 110.897C105.253 110.476 105.752 110.151 106.323 109.92C106.894 109.69 107.504 109.579 108.154 109.579C108.804 109.579 109.411 109.694 109.978 109.92C110.545 110.151 111.04 110.476 111.468 110.897C111.896 111.318 112.229 111.819 112.471 112.395C112.713 112.971 112.832 113.602 112.832 114.289C112.832 114.977 112.713 115.62 112.471 116.196C112.229 116.772 111.896 117.268 111.468 117.689C111.044 118.106 110.545 118.432 109.978 118.659C109.411 118.889 108.804 119 108.154 119ZM108.154 117.666C108.753 117.666 109.284 117.527 109.748 117.248C110.212 116.97 110.576 116.581 110.842 116.073C111.104 115.568 111.238 114.969 111.238 114.285C111.238 113.602 111.108 112.991 110.842 112.49C110.576 111.99 110.216 111.6 109.748 111.322C109.284 111.044 108.749 110.905 108.154 110.905C107.56 110.905 107.025 111.044 106.561 111.322C106.097 111.6 105.728 111.99 105.459 112.49C105.189 112.991 105.058 113.59 105.058 114.285C105.058 114.98 105.193 115.568 105.459 116.073C105.724 116.577 106.093 116.97 106.561 117.248C107.025 117.527 107.556 117.666 108.154 117.666Z" fill="#EAAF7F"/>
<path d="M122.409 116.371C122.46 116.617 122.564 116.839 122.718 117.038C122.873 117.237 123.079 117.392 123.337 117.507C123.594 117.622 123.903 117.678 124.264 117.678C124.819 117.678 125.231 117.547 125.501 117.288C125.774 117.03 125.909 116.724 125.909 116.371C125.909 116.081 125.822 115.839 125.652 115.644C125.481 115.449 125.239 115.286 124.934 115.147C124.625 115.012 124.276 114.881 123.88 114.758C123.519 114.651 123.17 114.54 122.837 114.421C122.504 114.301 122.203 114.15 121.933 113.972C121.664 113.793 121.454 113.559 121.295 113.273C121.136 112.987 121.061 112.629 121.073 112.196C121.073 111.632 121.204 111.156 121.469 110.762C121.735 110.369 122.104 110.075 122.575 109.873C123.051 109.67 123.594 109.571 124.209 109.571C124.728 109.571 125.196 109.642 125.612 109.789C126.028 109.936 126.381 110.147 126.674 110.421C126.964 110.699 127.178 111.04 127.32 111.446L125.885 111.922C125.834 111.728 125.727 111.557 125.568 111.402C125.41 111.247 125.215 111.128 124.982 111.04C124.748 110.953 124.498 110.905 124.224 110.893C123.927 110.886 123.662 110.929 123.428 111.025C123.194 111.12 123.008 111.259 122.869 111.442C122.73 111.624 122.659 111.831 122.659 112.069C122.659 112.343 122.738 112.554 122.897 112.709C123.055 112.864 123.265 112.991 123.523 113.09C123.78 113.189 124.07 113.297 124.387 113.4C124.756 113.507 125.124 113.626 125.489 113.761C125.854 113.896 126.187 114.071 126.492 114.278C126.797 114.484 127.039 114.746 127.225 115.064C127.408 115.382 127.503 115.775 127.503 116.252C127.503 116.764 127.388 117.225 127.154 117.638C126.92 118.051 126.567 118.381 126.092 118.627C125.616 118.873 125.029 118.996 124.324 118.996C123.753 118.996 123.233 118.909 122.762 118.738C122.29 118.567 121.902 118.321 121.588 117.999C121.275 117.678 121.073 117.296 120.974 116.855L122.409 116.367V116.371Z" fill="#EAAF7F"/>
<path d="M137.706 110.973H132.977V113.574H136.521V114.881H132.977V117.602H137.706V118.909H131.407V109.666H137.706V110.973Z" fill="#EAAF7F"/>
<path d="M141.714 109.666H143.268V115.556C143.268 116.021 143.363 116.414 143.549 116.732C143.735 117.05 143.993 117.284 144.318 117.439C144.643 117.594 145.012 117.67 145.424 117.67C145.836 117.67 146.233 117.594 146.558 117.439C146.883 117.284 147.14 117.05 147.327 116.732C147.513 116.414 147.608 116.025 147.608 115.556V109.666H149.162V115.517C149.162 116.109 149.059 116.621 148.853 117.054C148.647 117.491 148.365 117.852 148.009 118.142C147.652 118.432 147.251 118.647 146.811 118.79C146.367 118.929 145.9 119 145.408 119C144.758 119 144.152 118.873 143.589 118.619C143.026 118.365 142.57 117.979 142.225 117.463C141.876 116.947 141.706 116.299 141.706 115.517V109.666H141.714Z" fill="#EAAF7F"/>
<path d="M166.961 109.666V118.909H165.367L161.07 112.137V118.909H159.5V109.666H161.106L165.403 116.414V109.666H166.957H166.961Z" fill="#EAAF7F"/>
<path d="M177.564 110.973H172.835V113.574H176.379V114.881H172.835V117.602H177.564V118.909H171.265V109.666H177.564V110.973Z" fill="#EAAF7F"/>
<path d="M188.58 112.542C188.255 111.962 187.855 111.541 187.383 111.287C186.907 111.032 186.404 110.905 185.869 110.905C185.29 110.905 184.759 111.048 184.283 111.334C183.804 111.62 183.427 112.017 183.15 112.522C182.872 113.03 182.733 113.614 182.733 114.285C182.733 114.957 182.868 115.541 183.142 116.049C183.415 116.557 183.784 116.951 184.256 117.237C184.727 117.523 185.251 117.666 185.829 117.666C186.242 117.666 186.63 117.594 186.987 117.455C187.347 117.316 187.665 117.117 187.934 116.867C188.204 116.617 188.422 116.327 188.58 116.001V115.076H185.932V113.797H190.15V116.093C189.94 116.637 189.623 117.133 189.207 117.57C188.79 118.011 188.295 118.357 187.716 118.615C187.141 118.869 186.507 118.996 185.813 118.996C185.163 118.996 184.557 118.881 183.99 118.655C183.423 118.424 182.928 118.103 182.499 117.685C182.071 117.268 181.738 116.772 181.497 116.192C181.255 115.616 181.136 114.981 181.136 114.285C181.136 113.59 181.255 112.967 181.497 112.391C181.738 111.815 182.071 111.314 182.499 110.893C182.928 110.472 183.423 110.147 183.99 109.916C184.557 109.686 185.163 109.575 185.813 109.575C186.4 109.575 186.967 109.67 187.514 109.857C188.061 110.043 188.545 110.325 188.977 110.695C189.409 111.064 189.738 111.517 189.964 112.053L188.58 112.542Z" fill="#EAAF7F"/>
<path d="M198.292 119C197.642 119 197.032 118.885 196.461 118.658C195.89 118.428 195.39 118.106 194.966 117.689C194.538 117.272 194.205 116.776 193.963 116.196C193.722 115.62 193.603 114.984 193.603 114.289C193.603 113.594 193.722 112.971 193.963 112.395C194.205 111.819 194.538 111.318 194.966 110.897C195.394 110.476 195.89 110.151 196.461 109.92C197.032 109.69 197.642 109.579 198.292 109.579C198.942 109.579 199.549 109.694 200.116 109.92C200.682 110.151 201.178 110.476 201.606 110.897C202.03 111.318 202.367 111.819 202.609 112.395C202.851 112.971 202.97 113.602 202.97 114.289C202.97 114.976 202.847 115.62 202.609 116.196C202.367 116.772 202.034 117.268 201.606 117.689C201.178 118.106 200.682 118.432 200.116 118.658C199.549 118.889 198.942 119 198.292 119ZM198.292 117.665C198.891 117.665 199.422 117.526 199.886 117.248C200.349 116.97 200.714 116.581 200.98 116.073C201.245 115.564 201.376 114.969 201.376 114.285C201.376 113.602 201.245 112.99 200.98 112.49C200.714 111.99 200.353 111.6 199.886 111.322C199.422 111.044 198.887 110.905 198.292 110.905C197.698 110.905 197.162 111.044 196.699 111.322C196.235 111.6 195.866 111.99 195.597 112.49C195.327 112.99 195.196 113.59 195.196 114.285C195.196 114.98 195.331 115.568 195.597 116.073C195.862 116.577 196.231 116.97 196.699 117.248C197.166 117.526 197.698 117.665 198.292 117.665ZM199.664 106.246V107.581L196.726 109.007V107.859L199.664 106.246Z" fill="#EAAF7F"/>
<path d="M206.303 114.285C206.303 113.59 206.422 112.955 206.664 112.379C206.906 111.803 207.239 111.306 207.667 110.885C208.095 110.464 208.591 110.143 209.158 109.916C209.724 109.686 210.331 109.575 210.981 109.575C211.885 109.575 212.705 109.789 213.439 110.222C214.172 110.655 214.731 111.275 215.119 112.085L213.843 112.522C213.641 112.137 213.383 111.823 213.066 111.585C212.749 111.346 212.416 111.175 212.063 111.068C211.71 110.961 211.365 110.909 211.021 110.909C210.422 110.909 209.887 111.048 209.411 111.326C208.936 111.604 208.567 111.994 208.297 112.502C208.028 113.01 207.897 113.606 207.897 114.289C207.897 114.973 208.032 115.56 208.297 116.065C208.563 116.569 208.936 116.967 209.411 117.245C209.887 117.527 210.422 117.666 211.021 117.666C211.373 117.666 211.73 117.61 212.095 117.499C212.46 117.388 212.804 117.197 213.137 116.919C213.47 116.641 213.74 116.271 213.962 115.803L215.226 116.212C214.822 117.161 214.247 117.864 213.502 118.317C212.757 118.77 211.916 118.996 210.985 118.996C210.335 118.996 209.728 118.881 209.161 118.655C208.595 118.424 208.099 118.099 207.671 117.678C207.243 117.256 206.91 116.756 206.668 116.18C206.426 115.604 206.307 114.973 206.307 114.285H206.303Z" fill="#EAAF7F"/>
<path d="M219.19 109.666H220.76V118.909H219.19V109.666Z" fill="#EAAF7F"/>
<path d="M229.283 119C228.633 119 228.022 118.885 227.451 118.659C226.881 118.428 226.381 118.106 225.957 117.689C225.529 117.272 225.196 116.776 224.954 116.196C224.712 115.62 224.593 114.984 224.593 114.289C224.593 113.594 224.712 112.971 224.954 112.395C225.196 111.819 225.529 111.318 225.957 110.897C226.385 110.476 226.881 110.151 227.451 109.92C228.022 109.69 228.633 109.579 229.283 109.579C229.933 109.579 230.539 109.694 231.106 109.92C231.673 110.151 232.169 110.476 232.597 110.897C233.021 111.318 233.358 111.819 233.6 112.395C233.841 112.971 233.96 113.602 233.96 114.289C233.96 114.977 233.837 115.62 233.6 116.196C233.358 116.772 233.025 117.268 232.597 117.689C232.169 118.106 231.673 118.432 231.106 118.659C230.539 118.889 229.933 119 229.283 119ZM229.283 117.666C229.881 117.666 230.413 117.527 230.876 117.248C231.34 116.97 231.705 116.581 231.97 116.073C232.236 115.564 232.367 114.969 232.367 114.285C232.367 113.602 232.236 112.991 231.97 112.49C231.705 111.99 231.344 111.6 230.876 111.322C230.413 111.044 229.877 110.905 229.283 110.905C228.688 110.905 228.153 111.044 227.689 111.322C227.226 111.6 226.857 111.99 226.587 112.49C226.318 112.991 226.187 113.59 226.187 114.285C226.187 114.98 226.322 115.568 226.587 116.073C226.853 116.577 227.222 116.97 227.689 117.248C228.157 117.527 228.688 117.666 229.283 117.666Z" fill="#EAAF7F"/>
<path d="M12.7761 94.3144C10.3857 94.3144 8.22536 93.7305 6.29488 92.5667C4.36441 91.4029 2.84619 89.8141 1.74815 87.8083C0.65012 85.7985 0.0991211 83.6139 0.0991211 81.2545C0.0991211 78.8952 0.65012 76.6868 1.74815 74.6889C2.84619 72.687 4.36044 71.1022 6.29488 69.9305C8.22536 68.7587 10.3857 68.1709 12.7761 68.1709C14.7977 68.1709 16.637 68.5641 18.294 69.3506C19.9549 70.137 21.3542 71.2253 22.4919 72.6155C23.6295 74.0057 24.4303 75.5985 24.898 77.3978H19.5585C18.9797 75.9679 18.0958 74.8875 16.9026 74.1566C15.7094 73.4258 14.3418 73.0604 12.8038 73.0604C11.5036 73.0604 10.2787 73.394 9.12519 74.0613C7.97166 74.7286 7.04408 75.6819 6.34642 76.9172C5.64875 78.1564 5.29991 79.5903 5.29991 81.2307C5.29991 82.8711 5.65271 84.3368 6.35831 85.58C7.0639 86.8272 7.99148 87.7805 9.13708 88.4478C10.2827 89.1151 11.5076 89.4487 12.8038 89.4487C13.8146 89.4487 14.7581 89.2819 15.642 88.9443C16.5221 88.6066 17.303 88.0943 17.9768 87.4031C18.6507 86.712 19.1779 85.8541 19.5625 84.8253H24.8782C24.4303 86.6882 23.6414 88.3405 22.5196 89.7784C21.3978 91.2162 19.9945 92.3323 18.3098 93.1267C16.6251 93.9211 14.7818 94.3183 12.7761 94.3183V94.3144Z" fill="#005140"/>
<path d="M40.0485 94.3661C37.6106 94.3661 35.4106 93.7822 33.4484 92.6185C31.4823 91.4547 29.9442 89.8699 28.8303 87.872C27.7165 85.8701 27.1575 83.6815 27.1575 81.3063C27.1575 78.9311 27.7125 76.7147 28.8303 74.7168C29.9442 72.7149 31.4823 71.1341 33.4484 69.9703C35.4106 68.8065 37.6225 68.2227 40.0763 68.2227C42.53 68.2227 44.7221 68.8065 46.7041 69.9703C48.6861 71.1341 50.236 72.7189 51.3579 74.7168C52.4797 76.7187 53.0426 78.9152 53.0426 81.3063C53.0426 83.6974 52.4797 85.8979 51.3579 87.8958C50.236 89.8977 48.6822 91.4745 46.7041 92.6304C44.7221 93.7862 42.5062 94.3661 40.0525 94.3661H40.0485ZM40.0961 89.4965C41.539 89.4965 42.8511 89.139 44.0284 88.4241C45.2057 87.7091 46.1373 86.728 46.8191 85.4848C47.5009 84.2416 47.8418 82.8395 47.8418 81.2785C47.8418 79.7175 47.5009 78.3432 46.8191 77.096C46.1373 75.8528 45.2097 74.8717 44.0284 74.1568C42.8511 73.4418 41.539 73.0843 40.0961 73.0843C38.6532 73.0843 37.3371 73.4418 36.1519 74.1568C34.9666 74.8717 34.0351 75.8528 33.3612 77.096C32.6873 78.3392 32.3504 79.7334 32.3504 81.2785C32.3504 82.8236 32.6873 84.2416 33.3612 85.4967C34.0351 86.7519 34.9627 87.729 36.1519 88.436C37.3371 89.143 38.6532 89.4965 40.0961 89.4965Z" fill="#005140"/>
<path d="M55.7579 68.8899H60.7605V73.0605C61.2243 72.0953 61.8863 71.2453 62.7465 70.5065C63.6027 69.7677 64.6056 69.1918 65.7512 68.7826C66.8968 68.3735 68.1137 68.167 69.3941 68.167C71.5743 68.167 73.4057 68.6277 74.8883 69.5532C76.3708 70.4787 77.4807 71.8331 78.218 73.6245C78.9553 75.4158 79.324 77.6203 79.324 80.2418V93.5915H74.0796V80.3609C74.0796 77.8387 73.5524 75.9838 72.494 74.7922C71.4356 73.6046 69.9293 73.0088 67.971 73.0088C66.7343 73.0088 65.5847 73.3226 64.5184 73.9502C63.4521 74.5777 62.5998 75.4833 61.9576 76.6749C61.3155 77.8626 60.9944 79.2527 60.9944 80.8455V93.5955H55.75V68.8939L55.7579 68.8899Z" fill="#005140"/>
<path d="M92.5361 94.3383C90.2766 94.3383 88.3541 93.9371 86.7764 93.1348C85.1987 92.3324 84.0135 91.2878 83.2286 90.0009C82.4437 88.714 82.0513 87.3277 82.0513 85.8303L87.1014 85.8541C87.1173 86.6724 87.3393 87.4032 87.7634 88.0467C88.1876 88.6901 88.8099 89.1946 89.6265 89.564C90.4431 89.9334 91.4301 90.12 92.5837 90.12C93.6579 90.12 94.5577 89.985 95.2792 89.7109C96.0007 89.4369 96.5358 89.0436 96.8886 88.5312C97.2414 88.0189 97.4158 87.3992 97.4158 86.6763C97.4158 85.9534 97.2017 85.3418 96.7776 84.8929C96.3534 84.4441 95.7549 84.0946 94.9859 83.8443C94.2168 83.5941 93.1743 83.3756 91.8582 83.181C90.1101 82.9228 88.6038 82.5256 87.3353 81.9894C86.0668 81.4532 85.052 80.6588 84.279 79.6142C83.51 78.5696 83.1255 77.2429 83.1255 75.6383C83.1255 74.1607 83.4704 72.8579 84.1601 71.7338C84.8499 70.6098 85.8805 69.7319 87.2521 69.1084C88.6236 68.4808 90.2845 68.167 92.2428 68.167C94.201 68.167 95.8698 68.4927 97.3524 69.1441C98.8349 69.7955 99.9845 70.7051 100.805 71.8808C101.622 73.0525 102.03 74.395 102.03 75.9044L96.8846 75.8805C96.8371 75.2053 96.627 74.6135 96.2583 74.0971C95.8897 73.5848 95.3704 73.1836 94.6965 72.9055C94.0226 72.6235 93.206 72.4845 92.2428 72.4845C91.3786 72.4845 90.6453 72.6156 90.0427 72.8817C89.4402 73.1478 88.9923 73.5133 88.695 73.978C88.3977 74.4427 88.251 74.9591 88.251 75.5191C88.251 76.2102 88.4016 76.7583 88.7069 77.1714C89.0121 77.5805 89.5393 77.9182 90.2925 78.1843C91.0456 78.4504 92.1754 78.7126 93.6817 78.9668C93.8244 78.9826 93.9711 79.0025 94.1138 79.0263C94.2565 79.0502 94.4031 79.07 94.5459 79.0859C96.3098 79.4076 97.7646 79.8168 98.9102 80.3133C100.056 80.8097 100.983 81.5525 101.689 82.5296C102.395 83.5107 102.747 84.7936 102.747 86.3864C102.747 88.1062 102.315 89.56 101.447 90.7476C100.583 91.9352 99.382 92.8329 97.8518 93.4366C96.3217 94.0404 94.5459 94.3422 92.5242 94.3422L92.5361 94.3383Z" fill="#005140"/>
<path d="M116.978 94.3142C114.687 94.3142 112.685 93.8892 110.977 93.0352C109.268 92.1852 107.924 90.8467 106.949 89.0235C105.97 87.2004 105.483 84.8887 105.483 82.0964V68.8896H110.679V81.9256C110.679 84.3843 111.211 86.2511 112.277 87.5301C113.343 88.809 114.893 89.4446 116.931 89.4446C118.31 89.4446 119.46 89.1546 120.383 88.5787C121.307 87.9988 122.001 87.1567 122.476 86.0485C122.948 84.9403 123.186 83.566 123.186 81.9256V68.8896H128.406V82.0964C128.406 84.8927 127.919 87.2004 126.94 89.0235C125.961 90.8467 124.617 92.1852 122.912 93.0352C121.204 93.8852 119.23 94.3142 116.982 94.3142H116.978Z" fill="#005140"/>
<path d="M132.922 61.5854H138.166V93.5875H132.922V61.5854Z" fill="#005140"/>
<path d="M150.359 93.5915C148.885 93.5915 147.561 93.3492 146.391 92.8686C145.222 92.388 144.251 91.4545 143.482 90.0723C142.713 88.6901 142.328 86.7557 142.328 84.2653V61.6132L147.573 61.5894V68.8898H155.219V73.4218H147.573V84.5076C147.573 85.727 147.747 86.6842 148.1 87.3753C148.453 88.0665 148.908 88.5431 149.471 88.8092C150.034 89.0753 150.68 89.2064 151.418 89.2064H155.219V93.5915H150.359Z" fill="#005140"/>
<path d="M171.48 94.3144C169.042 94.3144 166.842 93.7305 164.879 92.5667C162.913 91.4029 161.375 89.8181 160.261 87.8202C159.147 85.8183 158.589 83.6298 158.589 81.2545C158.589 78.8793 159.143 76.663 160.261 74.6651C161.375 72.6632 162.913 71.0823 164.879 69.9186C166.842 68.7548 169.054 68.1709 171.507 68.1709C173.961 68.1709 176.153 68.7548 178.135 69.9186C180.117 71.0823 181.667 72.6672 182.789 74.6651C183.911 76.6669 184.474 78.8634 184.474 81.2545C184.474 83.6457 183.911 85.8461 182.789 87.844C181.667 89.8459 180.113 91.4228 178.135 92.5786C176.153 93.7344 173.937 94.3144 171.483 94.3144H171.48ZM171.527 89.4447C172.97 89.4447 174.282 89.0873 175.459 88.3723C176.637 87.6573 177.568 86.6763 178.25 85.433C178.932 84.1898 179.273 82.7877 179.273 81.2267C179.273 79.6658 178.932 78.2915 178.25 77.0443C177.568 75.801 176.641 74.82 175.459 74.105C174.282 73.3901 172.97 73.0326 171.527 73.0326C170.084 73.0326 168.768 73.3901 167.583 74.105C166.398 74.82 165.466 75.801 164.792 77.0443C164.118 78.2875 163.781 79.6816 163.781 81.2267C163.781 82.7718 164.118 84.1898 164.792 85.445C165.466 86.7001 166.394 87.6772 167.583 88.3842C168.768 89.0912 170.084 89.4447 171.527 89.4447Z" fill="#005140"/>
<path d="M187.791 68.9337H192.818V73.7516C193.234 72.7547 193.773 71.8967 194.427 71.1738C195.085 70.451 195.862 69.8949 196.762 69.5096C197.658 69.1243 198.653 68.9297 199.743 68.9297H202.292V73.4617H200.032C198.653 73.4617 197.44 73.7993 196.389 74.4745C195.339 75.1498 194.518 76.1388 193.924 77.4376C193.329 78.7404 193.036 80.2895 193.036 82.0888V93.6313H187.791V68.9297V68.9337Z" fill="#005140"/>
<path d="M204.987 68.8896H210.156V93.5913H204.987V68.8896Z" fill="#005140"/>
<path d="M234 93.3252L233.909 91.5576L233.865 90.4534C233.849 90.1039 233.841 89.7544 233.841 89.4128V78.8116C233.841 76.8614 233.457 75.1217 232.696 73.6322C231.927 72.1268 230.757 70.9471 229.231 70.121C227.717 69.3027 225.854 68.8896 223.698 68.8896C223.527 68.8896 223.353 68.8897 223.174 68.8976H216.693V73.3621H222.599V73.4018L223.055 73.3661C223.297 73.3462 223.523 73.3382 223.745 73.3382C224.934 73.3382 225.949 73.5766 226.758 74.0453C227.558 74.5139 228.165 75.1336 228.561 75.8882C228.934 76.6032 229.136 77.3936 229.16 78.2357L224.502 78.5693C222.286 78.7203 220.304 79.1095 218.604 79.7172C216.875 80.3408 215.472 81.2504 214.442 82.4261C213.387 83.6256 212.852 85.1588 212.852 86.9819C212.852 88.4675 213.197 89.7583 213.875 90.8109C214.553 91.8675 215.48 92.6658 216.626 93.1941C217.755 93.7144 219.06 93.9766 220.507 93.9766C221.823 93.9766 223.123 93.7462 224.371 93.2854C225.62 92.8287 226.75 92.1614 227.729 91.3034C228.316 90.791 228.831 90.2151 229.275 89.5756V93.3212H234.004L234 93.3252ZM229.136 82.3228V82.3864C229.136 83.6932 228.771 84.9125 228.05 86.0128C227.321 87.1289 226.361 88.0186 225.2 88.666C224.042 89.3095 222.81 89.6352 221.541 89.6352C220.673 89.6352 219.924 89.5081 219.321 89.2618C218.735 89.0196 218.299 88.6859 217.993 88.241C217.692 87.8041 217.541 87.252 217.541 86.5927C217.541 85.6632 217.839 84.9483 218.453 84.4121C219.103 83.8441 219.967 83.427 221.03 83.1649C222.132 82.8948 223.456 82.7041 224.966 82.6009L229.144 82.3149L229.136 82.3228Z" fill="#005140"/>
<path d="M87.3035 50.3923C85.0401 50.3923 82.9986 50.0189 81.1831 49.2722C79.3676 48.5255 77.8573 47.0797 76.6483 44.9348C75.4432 42.7899 74.8367 39.7871 74.8367 35.9224V19.0972L74.7614 11.2843L74.69 0H83.0105V12.0708H94.8391V19.1012H82.9748V36.2998C82.9748 38.1944 83.2484 39.6759 83.7954 40.7484C84.3424 41.8208 85.052 42.5635 85.9241 42.9727C86.7961 43.3857 87.8149 43.5883 88.9843 43.5883H96.0006V50.3923H87.3075H87.3035Z" fill="#005140"/>
<path d="M99.592 12.0708H107.389V19.55C108.035 18.0049 108.868 16.6703 109.89 15.5502C110.909 14.4301 112.118 13.5682 113.51 12.9685C114.901 12.3687 116.443 12.0708 118.136 12.0708H122.092V19.1012H118.584C116.443 19.1012 114.56 19.6255 112.931 20.6701C111.302 21.7187 110.025 23.2519 109.106 25.2696C108.186 27.2874 107.726 29.6944 107.726 32.4867V50.3963H99.592V12.0708Z" fill="#005140"/>
<path d="M175.166 51.5521C171.634 51.5521 168.451 50.6465 165.613 48.8392C162.778 47.032 160.563 44.5773 158.969 41.4752C157.376 38.3731 156.583 34.9652 156.583 31.2474C156.583 27.5297 157.372 24.0939 158.953 21.0037C160.531 17.9136 162.739 15.4628 165.577 13.6556C168.411 11.8484 171.634 10.9428 175.241 10.9428C177.33 10.9428 179.273 11.3161 181.064 12.0628C182.856 12.8096 184.398 13.7946 185.69 15.018C186.983 16.2414 188.005 17.5481 188.751 18.9423L188.6 15.0537V0H196.699V50.3923H188.937V43.3619C188.065 44.9308 186.983 46.329 185.69 47.5484C184.398 48.7717 182.848 49.7409 181.045 50.4638C179.241 51.1867 177.283 51.5481 175.166 51.5481V51.5521ZM176.621 44.0014C178.833 44.0014 180.862 43.4414 182.702 42.3173C184.541 41.1972 185.992 39.664 187.05 37.7178C188.109 35.7715 188.636 33.6068 188.636 31.2117C188.636 28.8166 188.109 26.7234 187.05 24.7811C185.992 22.8388 184.545 21.3056 182.702 20.1815C180.858 19.0614 178.833 18.4974 176.621 18.4974C174.409 18.4974 172.348 19.0456 170.52 20.1418C168.693 21.2381 167.242 22.7514 166.172 24.6857C165.101 26.6161 164.566 28.7928 164.566 31.2117C164.566 33.6306 165.082 35.7715 166.116 37.7178C167.147 39.66 168.586 41.1932 170.425 42.3173C172.264 43.4374 174.33 44.0014 176.621 44.0014Z" fill="#005140"/>
<path d="M152.753 46.5238C152.73 45.9678 152.718 45.4077 152.718 44.8635V27.9311C152.718 24.8171 152.099 22.0367 150.886 19.6614C149.658 17.2584 147.794 15.3717 145.349 14.053C142.927 12.7463 139.954 12.0869 136.509 12.0869C136.235 12.0869 135.958 12.0909 135.676 12.1028H125.322V19.2325H134.753V19.2921L135.482 19.2325C135.871 19.2007 136.227 19.1848 136.58 19.1848C138.483 19.1848 140.1 19.5661 141.389 20.3168C142.669 21.0635 143.64 22.0526 144.27 23.264C144.865 24.404 145.186 25.6671 145.23 27.0136L137.789 27.5458C134.253 27.7881 131.082 28.4077 128.371 29.3808C125.608 30.3738 123.372 31.8276 121.723 33.7063C120.042 35.6208 119.186 38.0715 119.186 40.9829C119.186 43.3582 119.737 45.4157 120.819 47.0998C121.901 48.7839 123.38 50.0668 125.211 50.9089C127.015 51.735 129.1 52.1561 131.411 52.1561C133.512 52.1561 135.589 51.7867 137.579 51.0558C139.573 50.325 141.377 49.2605 142.939 47.8942C143.874 47.0759 144.699 46.1544 145.408 45.1336V51.1154H152.964L152.821 48.2914L152.749 46.5278L152.753 46.5238ZM145.198 33.5435V33.6467C145.198 35.732 144.615 37.6822 143.462 39.4418C142.296 41.2213 140.762 42.6472 138.907 43.6799C137.056 44.7086 135.09 45.229 133.064 45.229C131.677 45.229 130.484 45.0264 129.516 44.6332C128.577 44.2479 127.883 43.7157 127.396 43.0047C126.916 42.3096 126.674 41.4238 126.674 40.3713C126.674 38.8857 127.15 37.7458 128.129 36.8878C129.164 35.9822 130.547 35.311 132.24 34.8979C134 34.465 136.112 34.1631 138.531 34.0002L145.202 33.5474L145.198 33.5435Z" fill="#005140"/>
<path d="M234 51.1114L233.857 48.2874L233.786 46.5238C233.762 45.9678 233.75 45.4077 233.75 44.8635V27.9311C233.75 24.8171 233.132 22.0367 231.919 19.6614C230.69 17.2584 228.827 15.3717 226.381 14.053C223.959 12.7463 220.986 12.0869 217.541 12.0869C217.268 12.0869 216.99 12.0909 216.709 12.1028H206.355V19.2325H215.785V19.2921L216.515 19.2325C216.903 19.2007 217.26 19.1848 217.613 19.1848C219.515 19.1848 221.133 19.5661 222.421 20.3168C223.701 21.0635 224.673 22.0526 225.303 23.264C225.898 24.404 226.219 25.6671 226.262 27.0136L218.822 27.5458C215.286 27.7881 212.115 28.4077 209.403 29.3808C206.64 30.3738 204.405 31.8276 202.756 33.7063C201.075 35.6208 200.219 38.0715 200.219 40.9829C200.219 43.3582 200.766 45.4157 201.852 47.0998C202.934 48.7839 204.413 50.0668 206.244 50.9089C208.048 51.735 210.133 52.1561 212.444 52.1561C214.545 52.1561 216.622 51.7867 218.612 51.0558C220.606 50.325 222.409 49.2605 223.971 47.8942C224.907 47.0759 225.731 46.1544 226.441 45.1336V51.1154H233.996L234 51.1114ZM226.23 33.5435V33.6467C226.23 35.732 225.648 37.6822 224.494 39.4418C223.329 41.2213 221.795 42.6472 219.94 43.6799C218.088 44.7086 216.122 45.229 214.097 45.229C212.709 45.229 211.516 45.0264 210.549 44.6332C209.609 44.2479 208.916 43.7157 208.428 43.0047C207.948 42.3096 207.707 41.4238 207.707 40.3713C207.707 38.8857 208.182 37.7458 209.161 36.8878C210.196 35.9822 211.579 35.311 213.272 34.8979C215.032 34.465 217.145 34.1631 219.563 34.0002L226.234 33.5474L226.23 33.5435Z" fill="#005140"/>
<path d="M70.6309 34.1191C69.5368 32.5978 68.0978 31.4539 66.322 30.6793C64.5421 29.9088 62.2866 29.2733 59.5475 28.7728C59.3255 28.749 59.0995 28.7172 58.8775 28.6775C58.6516 28.6417 58.4296 28.6099 58.2037 28.5821C55.8649 28.1849 54.1128 27.7798 52.9434 27.3667C51.774 26.9536 50.9535 26.4333 50.4817 25.7978C50.01 25.1623 49.7722 24.3083 49.7722 23.2359C49.7722 22.3621 50.0021 21.5677 50.4619 20.8448C50.9218 20.1219 51.6194 19.5539 52.551 19.1448C53.4825 18.7317 54.6202 18.5291 55.964 18.5291C57.4584 18.5291 58.7269 18.7476 59.7694 19.1845C60.8159 19.6214 61.6206 20.2371 62.1954 21.0354C62.7662 21.8338 63.0913 22.7553 63.1666 23.8039L71.1541 23.8396C71.1541 21.4962 70.5199 19.4149 69.2514 17.5957C67.9829 15.7765 66.1991 14.3625 63.896 13.3536C61.5929 12.3448 58.9529 11.8403 55.9679 11.8403C52.983 11.8403 50.3509 12.3249 48.2262 13.298C46.0975 14.2712 44.5 15.6296 43.4298 17.3733C42.3595 19.117 41.8243 21.1387 41.8243 23.4305C41.8243 25.9249 42.4229 27.9784 43.6161 29.599C44.8092 31.2195 46.3909 32.4469 48.357 33.281C50.3232 34.1151 52.662 34.7347 55.3733 35.1319C57.4109 35.4298 59.0282 35.7754 60.2253 36.1606C61.4185 36.5459 62.3461 37.0901 63.0041 37.7852C63.6621 38.4842 63.9911 39.4057 63.9911 40.5536C63.9911 41.5824 63.7572 42.4761 63.2974 43.2307C61.4859 45.8085 56.5784 46.5195 53.5658 45.5702C53.5658 45.5702 53.4587 45.5385 53.4548 45.5385C50.6324 44.6964 48.4205 42.1106 45.9429 40.5695C43.7707 39.2151 41.2813 38.2022 38.7245 38.3254C34.9547 38.5041 31.7835 41.0382 28.3982 42.7104C25.8652 43.9616 23.0706 44.7599 20.2442 44.7083C16.0622 44.6328 12.3598 42.627 10.2707 38.9728C10.2668 38.9649 10.2628 38.9529 10.2549 38.945L38.0308 25.7978C37.789 25.1663 37.5789 24.634 37.4005 24.1931C37.2221 23.7562 37.0477 23.355 36.8772 22.9936C35.3907 19.8399 33.2779 17.27 30.5388 15.284C27.7996 13.298 24.7236 12.1223 21.3026 11.7569C17.8817 11.3915 14.5321 11.9833 11.2459 13.5403C7.87251 15.1371 5.22058 17.405 3.2901 20.3443C1.35962 23.2835 0.281409 26.5207 0.0435682 30.0478C-0.190309 33.5789 0.47961 37.0106 2.04936 40.3471C3.63497 43.7074 5.66851 46.1303 8.53846 48.1877C8.60981 48.2394 8.6772 48.2751 8.74459 48.3188C12.3717 50.849 16.8352 52.1677 21.3343 52.12C25.5362 52.0763 29.7182 50.8212 33.2541 48.5492C34.8318 47.5324 36.4095 46.2613 38.2964 45.884C39.874 45.5702 41.4398 45.9674 42.8589 46.6665C44.2781 47.3616 45.4276 48.3625 46.7635 49.1927C49.4432 50.8648 52.5311 51.8777 55.6786 52.12C59.9439 52.4497 64.772 51.8578 68.0661 48.8948C70.5635 46.6466 72.268 43.3976 72.268 40.1048C72.268 37.6382 71.721 35.6443 70.6269 34.123L70.6309 34.1191ZM7.70602 29.7102C7.87251 27.5216 8.54242 25.6191 9.71974 24.0025C10.8971 22.3859 12.4192 21.1347 14.2863 20.249C15.975 19.4506 17.7231 19.0455 19.5307 19.0296C21.3383 19.0137 22.9794 19.3831 24.4461 20.1338C25.9167 20.8845 27.0227 21.9132 27.7758 23.212L7.87251 32.6335C7.69412 31.6286 7.63863 30.6555 7.70998 29.7142L7.70602 29.7102Z" fill="#005140"/>
</svg>
