<svg width="124" height="62" viewBox="0 0 124 62" fill="none" xmlns="http://www.w3.org/2000/svg">
<path d="M2.62572 57.8177H2.37365L0.907441 61.9524H0.0567017L1.78759 57.1368H3.19709L4.93638 61.9524H4.08354L2.62362 57.8177H2.62572ZM1.00617 60.1003H3.85457V60.7749H1.00617V60.1003Z" fill="#EAAF7F"/>
<path d="M10.0345 58.5875C10.0345 58.7613 10.0051 58.9331 9.9442 59.1028C9.88328 59.2725 9.78666 59.4298 9.65012 59.5746C9.51568 59.7195 9.33713 59.8333 9.11657 59.9182C8.89601 60.003 8.62713 60.0444 8.30994 60.0444H7.22814V61.9503H6.3963V57.1348H8.30994C8.70065 57.1348 9.02414 57.201 9.27621 57.3314C9.53038 57.4618 9.71944 57.6397 9.84547 57.8612C9.97151 58.0846 10.0345 58.3247 10.0345 58.5875ZM8.30994 59.3656C8.5137 59.3656 8.68174 59.3346 8.80988 59.2725C8.93802 59.2104 9.03464 59.1214 9.09976 59.0035C9.16488 58.8855 9.19639 58.7469 9.19639 58.5875C9.19639 58.3454 9.12497 58.155 8.98003 58.0205C8.83509 57.886 8.61243 57.8177 8.30994 57.8177H7.22814V59.3656H8.30994Z" fill="#EAAF7F"/>
<path d="M13.9437 62C13.5992 62 13.2758 61.94 12.9733 61.822C12.6708 61.702 12.4061 61.5344 12.1813 61.3171C11.9545 61.0998 11.778 60.8411 11.6499 60.539C11.5218 60.2389 11.4587 59.9078 11.4587 59.5457C11.4587 59.1835 11.5218 58.8586 11.6499 58.5585C11.778 58.2585 11.9545 57.9977 12.1813 57.7784C12.4061 57.559 12.6708 57.3893 12.9733 57.2693C13.2758 57.1493 13.5992 57.0913 13.9437 57.0913C14.2882 57.0913 14.6096 57.1513 14.91 57.2693C15.2104 57.3872 15.473 57.559 15.6998 57.7784C15.9267 57.9977 16.1031 58.2585 16.2313 58.5585C16.3594 58.8586 16.4224 59.1876 16.4224 59.5457C16.4224 59.9037 16.3594 60.2389 16.2313 60.539C16.1031 60.8391 15.9267 61.0977 15.6998 61.3171C15.4751 61.5344 15.2104 61.7041 14.91 61.822C14.6096 61.9421 14.2882 62 13.9437 62ZM13.9437 61.3047C14.2609 61.3047 14.5424 61.2322 14.7882 61.0874C15.0339 60.9425 15.2272 60.7397 15.3679 60.4748C15.5066 60.212 15.578 59.8995 15.578 59.5436C15.578 59.1877 15.5087 58.869 15.3679 58.6082C15.2272 58.3475 15.036 58.1447 14.7882 57.9998C14.5424 57.8549 14.2609 57.7825 13.9437 57.7825C13.6265 57.7825 13.3451 57.8549 13.0993 57.9998C12.8514 58.1447 12.6582 58.3475 12.5153 58.6082C12.3725 58.869 12.3032 59.1814 12.3032 59.5436C12.3032 59.9057 12.3746 60.212 12.5153 60.4748C12.6561 60.7377 12.8514 60.9425 13.0993 61.0874C13.3451 61.2322 13.6265 61.3047 13.9437 61.3047Z" fill="#EAAF7F"/>
<path d="M18.084 57.1368H18.9158V61.9524H18.084V57.1368Z" fill="#EAAF7F"/>
<path d="M23.0771 62C22.7326 62 22.4091 61.94 22.1066 61.822C21.8041 61.702 21.5395 61.5344 21.3147 61.3171C21.0878 61.0998 20.9114 60.8411 20.7833 60.539C20.6551 60.2389 20.5921 59.9078 20.5921 59.5457C20.5921 59.1835 20.6551 58.8586 20.7833 58.5585C20.9114 58.2585 21.0878 57.9977 21.3147 57.7784C21.5395 57.559 21.8041 57.3893 22.1066 57.2693C22.4091 57.1493 22.7326 57.0913 23.0771 57.0913C23.4216 57.0913 23.743 57.1513 24.0434 57.2693C24.3438 57.3872 24.6063 57.559 24.8332 57.7784C25.0601 57.9977 25.2365 58.2585 25.3646 58.5585C25.4928 58.8586 25.5558 59.1876 25.5558 59.5457C25.5558 59.9037 25.4928 60.2389 25.3646 60.539C25.2365 60.8391 25.0601 61.0977 24.8332 61.3171C24.6084 61.5344 24.3438 61.7041 24.0434 61.822C23.743 61.9421 23.4216 62 23.0771 62ZM23.0771 61.3047C23.3943 61.3047 23.6758 61.2322 23.9215 61.0874C24.1673 60.9425 24.3606 60.7397 24.5013 60.4748C24.6399 60.212 24.7114 59.8995 24.7114 59.5436C24.7114 59.1877 24.642 58.869 24.5013 58.6082C24.3606 58.3475 24.1694 58.1447 23.9215 57.9998C23.6758 57.8549 23.3943 57.7825 23.0771 57.7825C22.7599 57.7825 22.4784 57.8549 22.2327 57.9998C21.9848 58.1447 21.7915 58.3475 21.6487 58.6082C21.5059 58.869 21.4365 59.1814 21.4365 59.5436C21.4365 59.9057 21.508 60.212 21.6487 60.4748C21.7894 60.7377 21.9848 60.9425 22.2327 61.0874C22.4784 61.2322 22.7599 61.3047 23.0771 61.3047Z" fill="#EAAF7F"/>
<path d="M33.7102 58.5875C33.7102 58.7613 33.6808 58.9331 33.6199 59.1028C33.559 59.2725 33.4624 59.4298 33.3258 59.5746C33.1893 59.7195 33.0128 59.8333 32.7923 59.9182C32.5717 60.003 32.3028 60.0444 31.9857 60.0444H30.9039V61.9503H30.072V57.1348H31.9857C32.3764 57.1348 32.6999 57.201 32.9519 57.3314C33.2061 57.4618 33.3952 57.6397 33.5212 57.8612C33.6472 58.0846 33.7102 58.3247 33.7102 58.5875ZM31.9857 59.3656C32.1894 59.3656 32.3575 59.3346 32.4856 59.2725C32.6137 59.2104 32.7104 59.1214 32.7755 59.0035C32.8406 58.8855 32.8742 58.7469 32.8742 58.5875C32.8742 58.3454 32.8028 58.155 32.6578 58.0205C32.5129 57.886 32.2902 57.8177 31.9878 57.8177H30.906V59.3656H31.9878H31.9857Z" fill="#EAAF7F"/>
<path d="M37.1532 57.8177H36.9011L35.4349 61.9524H34.582L36.3129 57.1368H37.7224L39.4617 61.9524H38.6089L37.149 57.8177H37.1532ZM35.5336 60.1003H38.382V60.7749H35.5336V60.1003Z" fill="#EAAF7F"/>
<path d="M42.8373 57.1368C43.2281 57.1368 43.5515 57.2031 43.8036 57.3334C44.0578 57.4638 44.2468 57.6418 44.3729 57.8632C44.4989 58.0867 44.5619 58.3268 44.5619 58.5896C44.5619 58.7634 44.5325 58.9352 44.4716 59.1049C44.4107 59.2746 44.3141 59.4318 44.1775 59.5767C44.0431 59.7216 43.8645 59.8354 43.644 59.9202C43.4234 60.0051 43.1545 60.0465 42.8373 60.0465H41.7555V61.9524H40.9237V57.1368H42.8373ZM43.7238 58.5875C43.7238 58.3495 43.6524 58.1612 43.5074 58.0226C43.3625 57.8839 43.1398 57.8156 42.8373 57.8156H41.7555V59.3635H42.8373C43.0411 59.3635 43.2091 59.3325 43.3373 59.2704C43.4654 59.2083 43.562 59.1194 43.6272 59.0014C43.6923 58.8834 43.7238 58.7448 43.7238 58.5854V58.5875ZM43.3331 59.7774L44.667 61.9503H43.7301L42.4445 59.7774H43.331H43.3331Z" fill="#EAAF7F"/>
<path d="M48.4502 57.8177H48.1981L46.7319 61.9524H45.879L47.6099 57.1368H49.0194L50.7587 61.9524H49.9059L48.446 57.8177H48.4502ZM46.8306 60.1003H49.679V60.7749H46.8306V60.1003Z" fill="#EAAF7F"/>
<path d="M57.3125 62C56.968 62 56.6445 61.94 56.342 61.822C56.0396 61.702 55.7749 61.5344 55.5501 61.3171C55.3233 61.0998 55.1468 60.8411 55.0187 60.539C54.8905 60.2389 54.8275 59.9078 54.8275 59.5457C54.8275 59.1835 54.8905 58.8586 55.0187 58.5585C55.1468 58.2585 55.3233 57.9977 55.5501 57.7784C55.7749 57.559 56.0396 57.3893 56.342 57.2693C56.6445 57.1493 56.968 57.0913 57.3125 57.0913C57.657 57.0913 57.9784 57.1513 58.2788 57.2693C58.5792 57.3893 58.8417 57.559 59.0686 57.7784C59.2955 57.9977 59.4719 58.2585 59.6001 58.5585C59.7282 58.8586 59.7912 59.1876 59.7912 59.5457C59.7912 59.9037 59.7282 60.2389 59.6001 60.539C59.4719 60.8391 59.2955 61.0977 59.0686 61.3171C58.8417 61.5344 58.5792 61.7041 58.2788 61.822C57.9784 61.9421 57.657 62 57.3125 62ZM57.3125 61.3047C57.6297 61.3047 57.9112 61.2322 58.1569 61.0874C58.4027 60.9425 58.596 60.7397 58.7367 60.4748C58.8775 60.212 58.9468 59.8995 58.9468 59.5436C58.9468 59.1877 58.8775 58.869 58.7367 58.6082C58.5981 58.3475 58.4048 58.1447 58.1569 57.9998C57.9091 57.8549 57.6297 57.7825 57.3125 57.7825C56.9953 57.7825 56.7138 57.8549 56.4681 57.9998C56.2223 58.1447 56.027 58.3475 55.8841 58.6082C55.7413 58.869 55.6719 59.1814 55.6719 59.5436C55.6719 59.9057 55.7434 60.212 55.8841 60.4748C56.0249 60.7377 56.2202 60.9425 56.4681 61.0874C56.7138 61.2322 56.9953 61.3047 57.3125 61.3047Z" fill="#EAAF7F"/>
<path d="M64.8663 60.63C64.8936 60.7583 64.9482 60.8742 65.0301 60.9777C65.112 61.0812 65.2213 61.1619 65.3578 61.2219C65.4943 61.2819 65.6582 61.3109 65.8493 61.3109C66.1434 61.3109 66.3619 61.2426 66.5047 61.1081C66.6497 60.9736 66.7211 60.8142 66.7211 60.63C66.7211 60.479 66.6749 60.3527 66.5845 60.2513C66.4942 60.1499 66.3661 60.0651 66.2043 59.9927C66.0405 59.9223 65.8556 59.854 65.6456 59.7899C65.4544 59.734 65.2696 59.676 65.0931 59.614C64.9167 59.5519 64.757 59.4732 64.6142 59.3801C64.4713 59.287 64.36 59.1649 64.276 59.0159C64.192 58.8669 64.1521 58.6806 64.1584 58.4551C64.1584 58.1612 64.2277 57.9129 64.3684 57.708C64.5092 57.5031 64.7045 57.35 64.9545 57.2445C65.2065 57.1389 65.4943 57.0872 65.8199 57.0872C66.0951 57.0872 66.343 57.1244 66.5635 57.201C66.7841 57.2776 66.971 57.3873 67.1265 57.53C67.2798 57.6749 67.3933 57.8529 67.4689 58.064L66.7085 58.3123C66.6812 58.2109 66.6244 58.1219 66.5404 58.0412C66.4564 57.9605 66.3535 57.8984 66.2295 57.8529C66.1056 57.8073 65.9733 57.7825 65.8283 57.7763C65.6708 57.7722 65.53 57.7949 65.4061 57.8446C65.2822 57.8943 65.1834 57.9667 65.1099 58.0619C65.0364 58.1571 64.9986 58.2647 64.9986 58.3889C64.9986 58.5316 65.0406 58.6413 65.1246 58.722C65.2086 58.8027 65.32 58.869 65.4565 58.9207C65.5931 58.9724 65.7464 59.0283 65.9145 59.0821C66.1098 59.138 66.3052 59.2001 66.4984 59.2704C66.6917 59.3408 66.8681 59.4318 67.0299 59.5395C67.1916 59.6471 67.3197 59.7836 67.4185 59.9492C67.5151 60.1148 67.5655 60.3196 67.5655 60.568C67.5655 60.8349 67.5046 61.075 67.3807 61.2902C67.2567 61.5054 67.0698 61.6772 66.8177 61.8055C66.5656 61.9338 66.2547 61.9979 65.8808 61.9979C65.5784 61.9979 65.3032 61.9524 65.0532 61.8634C64.8032 61.7744 64.5974 61.6461 64.4314 61.4785C64.2655 61.3109 64.1584 61.1122 64.1079 60.8825L64.8684 60.628L64.8663 60.63Z" fill="#EAAF7F"/>
<path d="M72.9724 57.8177H70.4664V59.1732H72.3443V59.854H70.4664V61.2716H72.9724V61.9524H69.6346V57.1368H72.9724V57.8177Z" fill="#EAAF7F"/>
<path d="M75.0961 57.1368H75.9196V60.2058C75.9196 60.4479 75.97 60.6528 76.0687 60.8184C76.1674 60.9839 76.304 61.106 76.4762 61.1867C76.6485 61.2674 76.8438 61.3067 77.0623 61.3067C77.2807 61.3067 77.4908 61.2674 77.663 61.1867C77.8353 61.106 77.9718 60.9839 78.0706 60.8184C78.1693 60.6528 78.2197 60.45 78.2197 60.2058V57.1368H79.0431V60.1851C79.0431 60.4935 78.9885 60.7604 78.8793 60.986C78.7701 61.2136 78.6209 61.4019 78.4319 61.553C78.2428 61.7041 78.0306 61.8158 77.7975 61.8903C77.5622 61.9627 77.3143 62 77.0539 62C76.7094 62 76.388 61.9338 76.0897 61.8013C75.7914 61.6689 75.5519 61.4682 75.3671 61.1991C75.1822 60.9301 75.0919 60.5928 75.0919 60.1851V57.1368H75.0961Z" fill="#EAAF7F"/>
<path d="M88.4748 57.1368V61.9524H87.6304L85.3533 58.424V61.9524H84.5215V57.1368H85.3722L87.6493 60.6528V57.1368H88.4727H88.4748Z" fill="#EAAF7F"/>
<path d="M94.0939 57.8177H91.5879V59.1732H93.4658V59.854H91.5879V61.2716H94.0939V61.9524H90.756V57.1368H94.0939V57.8177Z" fill="#EAAF7F"/>
<path d="M99.9314 58.6351C99.7592 58.333 99.547 58.1136 99.297 57.9812C99.0449 57.8487 98.7782 57.7825 98.4946 57.7825C98.1879 57.7825 97.9064 57.857 97.6544 58.006C97.4002 58.155 97.2006 58.3619 97.0536 58.6248C96.9065 58.8897 96.833 59.1939 96.833 59.5436C96.833 59.8933 96.9044 60.1975 97.0494 60.4624C97.1943 60.7252 97.3897 60.9322 97.6397 61.0812C97.8896 61.2302 98.1669 61.3047 98.4736 61.3047C98.6921 61.3047 98.8979 61.2674 99.0891 61.195C99.2802 61.1226 99.4483 61.0191 99.5911 60.8887C99.736 60.7583 99.8495 60.6073 99.9335 60.4376V59.9554H98.5303V59.289H100.765V60.4852C100.654 60.7687 100.486 61.0274 100.265 61.255C100.045 61.4847 99.7823 61.6648 99.4756 61.7993C99.171 61.9317 98.8349 61.9979 98.4673 61.9979C98.1228 61.9979 97.8014 61.9379 97.501 61.82C97.2006 61.6999 96.9381 61.5323 96.7112 61.315C96.4843 61.0977 96.3079 60.839 96.1797 60.5369C96.0516 60.2368 95.9886 59.9057 95.9886 59.5436C95.9886 59.1814 96.0516 58.8565 96.1797 58.5565C96.3079 58.2564 96.4843 57.9957 96.7112 57.7763C96.936 57.5569 97.2006 57.3872 97.501 57.2672C97.8014 57.1472 98.1228 57.0892 98.4673 57.0892C98.7782 57.0892 99.0786 57.1389 99.3684 57.2362C99.6562 57.3355 99.9146 57.4804 100.144 57.6728C100.373 57.8653 100.547 58.1012 100.667 58.3806L99.9335 58.6351H99.9314Z" fill="#EAAF7F"/>
<path d="M105.078 62C104.733 62 104.41 61.94 104.107 61.822C103.805 61.702 103.54 61.5344 103.315 61.3171C103.089 61.0998 102.912 60.8411 102.784 60.539C102.656 60.2389 102.593 59.9078 102.593 59.5457C102.593 59.1835 102.656 58.8586 102.784 58.5585C102.912 58.2585 103.089 57.9977 103.315 57.7784C103.54 57.559 103.805 57.3893 104.107 57.2693C104.41 57.1493 104.733 57.0913 105.078 57.0913C105.422 57.0913 105.746 57.1513 106.044 57.2693C106.345 57.3893 106.607 57.559 106.834 57.7784C107.059 57.9977 107.237 58.2585 107.365 58.5585C107.494 58.8586 107.557 59.1876 107.557 59.5457C107.557 59.9037 107.494 60.2389 107.365 60.539C107.237 60.8391 107.061 61.0977 106.834 61.3171C106.607 61.5344 106.345 61.7041 106.044 61.822C105.744 61.9421 105.422 62 105.078 62ZM105.078 61.3047C105.395 61.3047 105.677 61.2322 105.922 61.0874C106.168 60.9425 106.361 60.7397 106.502 60.4748C106.643 60.212 106.712 59.8995 106.712 59.5436C106.712 59.1877 106.643 58.869 106.502 58.6082C106.363 58.3475 106.17 58.1447 105.922 57.9998C105.674 57.8549 105.393 57.7825 105.078 57.7825C104.763 57.7825 104.479 57.8549 104.233 57.9998C103.986 58.1447 103.792 58.3475 103.649 58.6082C103.507 58.869 103.437 59.1814 103.437 59.5436C103.437 59.9057 103.509 60.212 103.649 60.4748C103.79 60.7377 103.986 60.9425 104.233 61.0874C104.479 61.2322 104.763 61.3047 105.078 61.3047ZM105.805 55.3551V56.0504L104.248 56.7933V56.1953L105.805 55.3551Z" fill="#EAAF7F"/>
<path d="M109.323 59.5436C109.323 59.1814 109.386 58.8503 109.514 58.5503C109.642 58.2502 109.819 57.9915 110.046 57.7722C110.273 57.5549 110.535 57.3852 110.836 57.2672C111.136 57.1472 111.457 57.0892 111.802 57.0892C112.281 57.0892 112.716 57.201 113.104 57.4266C113.493 57.6521 113.789 57.975 113.995 58.3971L113.318 58.6248C113.211 58.424 113.075 58.2605 112.907 58.1364C112.739 58.0122 112.562 57.9232 112.375 57.8674C112.188 57.8115 112.006 57.7846 111.825 57.7846C111.508 57.7846 111.224 57.857 110.972 58.0019C110.72 58.1467 110.525 58.3495 110.382 58.6144C110.239 58.8793 110.17 59.1897 110.17 59.5457C110.17 59.9016 110.241 60.2079 110.382 60.4707C110.523 60.7335 110.72 60.9404 110.972 61.0853C111.224 61.2322 111.508 61.3047 111.825 61.3047C112.01 61.3047 112.201 61.2757 112.394 61.2178C112.587 61.1598 112.77 61.0605 112.945 60.9156C113.119 60.7708 113.264 60.5783 113.381 60.3341L114.052 60.5473C113.837 61.0419 113.533 61.4081 113.136 61.6441C112.741 61.88 112.295 61.9979 111.802 61.9979C111.457 61.9979 111.134 61.9379 110.836 61.82C110.535 61.6999 110.273 61.5302 110.046 61.3109C109.821 61.0915 109.642 60.8308 109.514 60.5307C109.386 60.2306 109.323 59.9016 109.323 59.5436Z" fill="#EAAF7F"/>
<path d="M116.152 57.1368H116.984V61.9524H116.152V57.1368Z" fill="#EAAF7F"/>
<path d="M121.5 62C121.156 62 120.832 61.94 120.53 61.822C120.227 61.702 119.963 61.5344 119.738 61.3171C119.511 61.0998 119.335 60.8411 119.206 60.539C119.078 60.2389 119.015 59.9078 119.015 59.5457C119.015 59.1835 119.078 58.8586 119.206 58.5585C119.335 58.2585 119.511 57.9977 119.738 57.7784C119.963 57.559 120.227 57.3893 120.53 57.2693C120.832 57.1493 121.156 57.0913 121.5 57.0913C121.845 57.0913 122.168 57.1513 122.467 57.2693C122.767 57.3893 123.03 57.559 123.256 57.7784C123.481 57.9977 123.66 58.2585 123.788 58.5585C123.916 58.8586 123.979 59.1876 123.979 59.5457C123.979 59.9037 123.916 60.2389 123.788 60.539C123.66 60.8391 123.483 61.0977 123.256 61.3171C123.03 61.5344 122.767 61.7041 122.467 61.822C122.166 61.9421 121.845 62 121.5 62ZM121.5 61.3047C121.817 61.3047 122.099 61.2322 122.345 61.0874C122.59 60.9425 122.784 60.7397 122.924 60.4748C123.065 60.212 123.135 59.8995 123.135 59.5436C123.135 59.1877 123.065 58.869 122.924 58.6082C122.786 58.3475 122.593 58.1447 122.345 57.9998C122.097 57.8549 121.815 57.7825 121.5 57.7825C121.185 57.7825 120.902 57.8549 120.656 57.9998C120.408 58.1447 120.215 58.3475 120.072 58.6082C119.929 58.869 119.86 59.1814 119.86 59.5436C119.86 59.9057 119.931 60.212 120.072 60.4748C120.213 60.7377 120.408 60.9425 120.656 61.0874C120.902 61.2322 121.185 61.3047 121.5 61.3047Z" fill="#EAAF7F"/>
<path d="M6.77018 49.1385C5.50352 49.1385 4.3587 48.8343 3.33571 48.228C2.31273 47.6216 1.5082 46.7939 0.926336 45.7488C0.344472 44.7017 0.0524902 43.5635 0.0524902 42.3342C0.0524902 41.105 0.344472 39.9544 0.926336 38.9135C1.5082 37.8705 2.31063 37.0448 3.33571 36.4343C4.3587 35.8238 5.50352 35.5176 6.77018 35.5176C7.84148 35.5176 8.81616 35.7224 9.6942 36.1322C10.5744 36.5419 11.3159 37.1089 11.9187 37.8332C12.5216 38.5575 12.9459 39.3874 13.1938 40.3248H10.3643C10.0576 39.5798 9.58917 39.017 8.9569 38.6362C8.32462 38.2554 7.59991 38.065 6.78488 38.065C6.09589 38.065 5.44681 38.2389 4.83554 38.5865C4.22426 38.9342 3.73273 39.4308 3.36302 40.0744C2.99332 40.7201 2.80847 41.4672 2.80847 42.3218C2.80847 43.1765 2.99542 43.9401 3.36932 44.5878C3.74323 45.2376 4.23477 45.7343 4.84184 46.082C5.44891 46.4296 6.09799 46.6035 6.78488 46.6035C7.32054 46.6035 7.82048 46.5166 8.28891 46.3406C8.75524 46.1647 9.16905 45.8978 9.52616 45.5377C9.88326 45.1776 10.1626 44.7306 10.3664 44.1947H13.1833C12.9459 45.1652 12.5279 46.0261 11.9334 46.7752C11.339 47.5244 10.5954 48.1059 9.70261 48.5198C8.80985 48.9336 7.83308 49.1406 6.77018 49.1406V49.1385Z" fill="#FFF8EC"/>
<path d="M21.2222 49.1654C19.9304 49.1654 18.7645 48.8612 17.7248 48.2549C16.6829 47.6485 15.8678 46.8228 15.2776 45.7819C14.6873 44.7389 14.3911 43.5987 14.3911 42.3611C14.3911 41.1236 14.6852 39.9689 15.2776 38.928C15.8678 37.885 16.6829 37.0613 17.7248 36.455C18.7645 35.8487 19.9367 35.5445 21.2369 35.5445C22.5372 35.5445 23.6988 35.8487 24.7491 36.455C25.7994 37.0613 26.6208 37.887 27.2152 38.928C27.8097 39.971 28.108 41.1154 28.108 42.3611C28.108 43.6069 27.8097 44.7534 27.2152 45.7943C26.6208 46.8373 25.7973 47.6589 24.7491 48.2611C23.6988 48.8633 22.5246 49.1654 21.2243 49.1654H21.2222ZM21.2474 46.6283C22.0121 46.6283 22.7074 46.4421 23.3312 46.0696C23.9551 45.6971 24.4487 45.1859 24.81 44.5382C25.1713 43.8905 25.352 43.1599 25.352 42.3467C25.352 41.5334 25.1713 40.8174 24.81 40.1676C24.4487 39.5198 23.9572 39.0087 23.3312 38.6362C22.7074 38.2637 22.0121 38.0774 21.2474 38.0774C20.4828 38.0774 19.7854 38.2637 19.1574 38.6362C18.5293 39.0087 18.0356 39.5198 17.6785 40.1676C17.3214 40.8153 17.1429 41.5417 17.1429 42.3467C17.1429 43.1517 17.3214 43.8905 17.6785 44.5444C18.0356 45.1983 18.5272 45.7074 19.1574 46.0758C19.7854 46.4441 20.4828 46.6283 21.2474 46.6283Z" fill="#FFF8EC"/>
<path d="M29.5469 35.8921H32.1978V38.065C32.4436 37.5622 32.7944 37.1193 33.2502 36.7344C33.7039 36.3495 34.2354 36.0494 34.8425 35.8362C35.4495 35.6231 36.0944 35.5155 36.7729 35.5155C37.9282 35.5155 38.8987 35.7555 39.6843 36.2377C40.4699 36.7199 41.0581 37.4256 41.4488 38.3589C41.8395 39.2922 42.0349 40.4407 42.0349 41.8065V48.7619H39.2558V41.8686C39.2558 40.5545 38.9764 39.5881 38.4156 38.9673C37.8547 38.3485 37.0565 38.0381 36.0188 38.0381C35.3634 38.0381 34.7542 38.2016 34.1892 38.5286C33.6241 38.8555 33.1725 39.3274 32.8322 39.9482C32.4919 40.567 32.3217 41.2913 32.3217 42.1211V48.764H29.5427V35.8942L29.5469 35.8921Z" fill="#FFF8EC"/>
<path d="M49.0362 49.1509C47.8388 49.1509 46.82 48.9419 45.984 48.5239C45.148 48.1059 44.5199 47.5616 44.104 46.8911C43.6881 46.2206 43.4801 45.4984 43.4801 44.7182L46.1563 44.7306C46.1647 45.1569 46.2823 45.5377 46.5071 45.873C46.7318 46.2082 47.0616 46.471 47.4943 46.6635C47.9271 46.8559 48.4501 46.9532 49.0614 46.9532C49.6306 46.9532 50.1075 46.8828 50.4898 46.7401C50.8721 46.5973 51.1557 46.3924 51.3426 46.1254C51.5296 45.8585 51.622 45.5356 51.622 45.159C51.622 44.7824 51.5086 44.4637 51.2838 44.2298C51.059 43.996 50.7418 43.8139 50.3343 43.6835C49.9268 43.5531 49.3744 43.4393 48.677 43.3379C47.7506 43.2034 46.9524 42.9965 46.2802 42.7171C45.608 42.4377 45.0702 42.0238 44.6606 41.4796C44.2531 40.9353 44.0494 40.2441 44.0494 39.4081C44.0494 38.6383 44.2321 37.9595 44.5976 37.3738C44.9631 36.7882 45.5093 36.3308 46.2361 36.0059C46.9629 35.679 47.843 35.5155 48.8807 35.5155C49.9184 35.5155 50.8028 35.6852 51.5884 36.0246C52.374 36.364 52.9832 36.8379 53.418 37.4504C53.8528 38.063 54.0671 38.7603 54.0671 39.5467L51.3405 39.5343C51.3153 39.1825 51.204 38.8742 51.0086 38.6051C50.8133 38.3382 50.5381 38.1292 50.181 37.9843C49.8239 37.8374 49.3912 37.765 48.8807 37.765C48.4228 37.765 48.0342 37.8332 47.7149 37.9719C47.3956 38.1105 47.1582 38.3009 47.0007 38.5431C46.8431 38.7852 46.7654 39.0542 46.7654 39.346C46.7654 39.7061 46.8452 39.9917 47.007 40.2069C47.1687 40.42 47.4481 40.5959 47.8472 40.7346C48.2463 40.8732 48.845 41.0098 49.6432 41.1423C49.7189 41.1505 49.7966 41.1609 49.8722 41.1733C49.9478 41.1857 50.0255 41.1961 50.1012 41.2043C51.0359 41.372 51.8068 41.5851 52.4139 41.8438C53.021 42.1025 53.5125 42.4895 53.8864 42.9985C54.2603 43.5097 54.4473 44.1781 54.4473 45.0079C54.4473 45.904 54.2183 46.6614 53.7583 47.2802C53.3004 47.8989 52.6639 48.3666 51.8531 48.6812C51.0422 48.9957 50.1012 49.153 49.0299 49.153L49.0362 49.1509Z" fill="#FFF8EC"/>
<path d="M61.9884 49.1385C60.7743 49.1385 59.7135 48.9171 58.8081 48.4722C57.9028 48.0293 57.1907 47.3319 56.6739 46.382C56.1551 45.4322 55.8967 44.2278 55.8967 42.773V35.8921H58.6506V42.684C58.6506 43.9649 58.9321 44.9376 59.4971 45.6039C60.0622 46.2703 60.8835 46.6014 61.9632 46.6014C62.6942 46.6014 63.3034 46.4503 63.7928 46.1503C64.2823 45.8481 64.6499 45.4094 64.902 44.832C65.1519 44.2547 65.278 43.5386 65.278 42.684V35.8921H68.0444V42.773C68.0444 44.2298 67.7861 45.4322 67.2672 46.382C66.7484 47.3319 66.0363 48.0293 65.133 48.4722C64.2277 48.915 63.1816 49.1385 61.9905 49.1385H61.9884Z" fill="#FFF8EC"/>
<path d="M70.437 32.0864H73.2161V48.7598H70.437V32.0864Z" fill="#FFF8EC"/>
<path d="M79.6775 48.7619C78.8961 48.7619 78.1945 48.6356 77.5748 48.3852C76.9551 48.1348 76.4405 47.6485 76.033 46.9284C75.6255 46.2082 75.4217 45.2004 75.4217 43.9029V32.1009L78.2008 32.0885V35.8921H82.2528V38.2533H78.2008V44.0291C78.2008 44.6644 78.2932 45.1631 78.4802 45.5232C78.6671 45.8833 78.9087 46.1316 79.207 46.2703C79.5052 46.4089 79.8476 46.4772 80.2384 46.4772H82.2528V48.7619H79.6775Z" fill="#FFF8EC"/>
<path d="M90.8695 49.1385C89.5776 49.1385 88.4118 48.8343 87.372 48.228C86.3301 47.6216 85.515 46.7959 84.9248 45.755C84.3345 44.712 84.0383 43.5718 84.0383 42.3342C84.0383 41.0967 84.3324 39.942 84.9248 38.9011C85.515 37.8581 86.3301 37.0344 87.372 36.4281C88.4118 35.8218 89.5839 35.5176 90.8842 35.5176C92.1844 35.5176 93.3461 35.8218 94.3963 36.4281C95.4466 37.0344 96.268 37.8601 96.8624 38.9011C97.4569 39.9441 97.7552 41.0885 97.7552 42.3342C97.7552 43.58 97.4569 44.7265 96.8624 45.7674C96.268 46.8104 95.4445 47.632 94.3963 48.2342C93.3461 48.8364 92.1718 49.1385 90.8716 49.1385H90.8695ZM90.8947 46.6014C91.6593 46.6014 92.3546 46.4152 92.9784 46.0427C93.6023 45.6702 94.096 45.159 94.4573 44.5113C94.8186 43.8635 94.9992 43.133 94.9992 42.3198C94.9992 41.5065 94.8186 40.7905 94.4573 40.1407C94.096 39.4929 93.6044 38.9818 92.9784 38.6093C92.3546 38.2368 91.6593 38.0505 90.8947 38.0505C90.13 38.0505 89.4326 38.2368 88.8046 38.6093C88.1765 38.9818 87.6829 39.4929 87.3258 40.1407C86.9687 40.7884 86.7901 41.5148 86.7901 42.3198C86.7901 43.1248 86.9687 43.8635 87.3258 44.5175C87.6829 45.1714 88.1744 45.6805 88.8046 46.0489C89.4326 46.4172 90.13 46.6014 90.8947 46.6014Z" fill="#FFF8EC"/>
<path d="M99.5134 35.9149H102.177V38.4251C102.397 37.9057 102.683 37.4587 103.03 37.082C103.378 36.7054 103.79 36.4157 104.267 36.2149C104.742 36.0142 105.269 35.9128 105.847 35.9128H107.197V38.274H106C105.269 38.274 104.626 38.4499 104.07 38.8017C103.513 39.1535 103.078 39.6688 102.763 40.3455C102.448 41.0243 102.292 41.8314 102.292 42.7688V48.7826H99.5134V35.9128V35.9149Z" fill="#FFF8EC"/>
<path d="M108.626 35.8921H111.365V48.7619H108.626V35.8921Z" fill="#FFF8EC"/>
<path d="M124 48.6232L123.952 47.7023L123.929 47.127C123.92 46.9449 123.916 46.7628 123.916 46.5848V41.0615C123.916 40.0455 123.712 39.139 123.309 38.363C122.901 37.5787 122.282 36.9641 121.473 36.5336C120.671 36.1073 119.683 35.8921 118.541 35.8921C118.45 35.8921 118.358 35.8921 118.263 35.8963H114.829V38.2223H117.959V38.243L118.2 38.2244C118.328 38.214 118.448 38.2099 118.566 38.2099C119.196 38.2099 119.734 38.334 120.162 38.5782C120.587 38.8224 120.908 39.1453 121.118 39.5384C121.315 39.9109 121.423 40.3228 121.435 40.7615L118.967 40.9353C117.793 41.0139 116.742 41.2168 115.841 41.5334C114.925 41.8583 114.182 42.3322 113.636 42.9447C113.077 43.5697 112.793 44.3685 112.793 45.3184C112.793 46.0923 112.976 46.7649 113.335 47.3133C113.694 47.8637 114.186 48.2797 114.793 48.5549C115.392 48.826 116.083 48.9626 116.85 48.9626C117.547 48.9626 118.236 48.8426 118.898 48.6025C119.559 48.3645 120.158 48.0169 120.677 47.5699C120.988 47.3029 121.261 47.0029 121.496 46.6697V48.6212H124.002L124 48.6232ZM121.423 42.8909V42.924C121.423 43.6049 121.229 44.2402 120.847 44.8134C120.46 45.3949 119.952 45.8585 119.337 46.1958C118.723 46.531 118.07 46.7007 117.398 46.7007C116.938 46.7007 116.541 46.6345 116.222 46.5062C115.911 46.38 115.68 46.2061 115.518 45.9744C115.358 45.7467 115.278 45.4591 115.278 45.1155C115.278 44.6313 115.436 44.2588 115.761 43.9794C116.106 43.6835 116.564 43.4662 117.127 43.3296C117.711 43.1889 118.412 43.0896 119.213 43.0358L121.427 42.8868L121.423 42.8909Z" fill="#FFF8EC"/>
<path d="M46.2634 26.2548C45.064 26.2548 43.9822 26.0603 43.0201 25.6712C42.058 25.2822 41.2577 24.5289 40.617 23.4114C39.9785 22.2939 39.6571 20.7294 39.6571 18.7159V9.9498L39.6172 5.87924L39.5793 0H43.9885V6.28899H50.2567V9.95187H43.9696V18.9125C43.9696 19.8996 44.1145 20.6715 44.4044 21.2302C44.6943 21.789 45.0703 22.176 45.5324 22.3891C45.9946 22.6043 46.5344 22.7099 47.1541 22.7099H50.8721V26.2548H46.2655H46.2634Z" fill="#FFF8EC"/>
<path d="M52.7753 6.28899H56.9072V10.1857C57.2496 9.38071 57.6907 8.68538 58.2326 8.1018C58.7725 7.51823 59.4132 7.06916 60.1505 6.75668C60.8878 6.44419 61.7049 6.28899 62.6019 6.28899H64.6983V9.95187H62.8392C61.7049 9.95187 60.7071 10.225 59.8438 10.7693C58.9804 11.3156 58.3041 12.1144 57.8167 13.1657C57.3294 14.217 57.0857 15.471 57.0857 16.9258V26.2569H52.7753V6.28899Z" fill="#FFF8EC"/>
<path d="M92.823 26.8591C90.9514 26.8591 89.2646 26.3872 87.7606 25.4457C86.2587 24.5041 85.0845 23.2252 84.24 21.6089C83.3956 19.9927 82.9755 18.2172 82.9755 16.2802C82.9755 14.3432 83.3935 12.5531 84.2316 10.9431C85.0676 9.33311 86.2377 8.05628 87.7417 7.11469C89.2436 6.1731 90.9514 5.70127 92.8629 5.70127C93.97 5.70127 94.9992 5.89579 95.9487 6.28485C96.8982 6.6739 97.7153 7.18712 98.4001 7.8245C99.0849 8.46188 99.6269 9.14272 100.022 9.86909L99.9419 7.84312V0H104.233V26.2548H100.12V22.5919C99.6584 23.4093 99.0849 24.1378 98.4001 24.7731C97.7153 25.4105 96.894 25.9154 95.9382 26.2921C94.9824 26.6687 93.9448 26.857 92.823 26.857V26.8591ZM93.594 22.9251C94.7661 22.9251 95.8416 22.6333 96.8163 22.0477C97.7909 21.4641 98.5597 20.6653 99.1206 19.6513C99.6815 18.6372 99.9608 17.5094 99.9608 16.2615C99.9608 15.0137 99.6815 13.9231 99.1206 12.9111C98.5597 11.8992 97.793 11.1004 96.8163 10.5148C95.8395 9.93118 94.7661 9.63732 93.594 9.63732C92.4218 9.63732 91.3295 9.9229 90.3611 10.4941C89.3928 11.0652 88.624 11.8537 88.0568 12.8615C87.4896 13.8672 87.2061 15.0013 87.2061 16.2615C87.2061 17.5218 87.4791 18.6372 88.0274 19.6513C88.5735 20.6632 89.3361 21.462 90.3107 22.0477C91.2854 22.6312 92.3798 22.9251 93.594 22.9251Z" fill="#FFF8EC"/>
<path d="M80.9463 24.2392C80.9337 23.9495 80.9274 23.6577 80.9274 23.3742V14.5522C80.9274 12.9298 80.5997 11.4812 79.9569 10.2437C79.3058 8.99166 78.3185 8.00868 77.0224 7.32163C75.7389 6.64079 74.1635 6.29726 72.3381 6.29726C72.1931 6.29726 72.0461 6.29933 71.897 6.30554H66.4102V10.0202H71.4075V10.0512L71.794 10.0202C71.9999 10.0036 72.1889 9.99533 72.3759 9.99533C73.3842 9.99533 74.2412 10.194 74.9239 10.5851C75.6024 10.9742 76.1171 11.4895 76.451 12.1206C76.7661 12.7146 76.9363 13.3726 76.9594 14.0742L73.0166 14.3515C71.1429 14.4777 69.4624 14.8005 68.0256 15.3075C66.5615 15.8249 65.3767 16.5823 64.5029 17.5611C63.6122 18.5586 63.1585 19.8354 63.1585 21.3523C63.1585 22.5899 63.4505 23.6618 64.024 24.5393C64.5974 25.4167 65.3809 26.0851 66.3514 26.5238C67.3072 26.9543 68.4121 27.1736 69.6367 27.1736C70.75 27.1736 71.8508 26.9812 72.9053 26.6004C73.9618 26.2196 74.9176 25.665 75.7452 24.9531C76.241 24.5268 76.6779 24.0467 77.0539 23.5149V26.6314H81.0576L80.982 25.1601L80.9442 24.2413L80.9463 24.2392ZM76.9426 17.4763V17.5301C76.9426 18.6166 76.6338 19.6326 76.0225 20.5494C75.405 21.4765 74.592 22.2194 73.609 22.7575C72.628 23.2935 71.5861 23.5646 70.5127 23.5646C69.7775 23.5646 69.1452 23.459 68.6326 23.2541C68.1348 23.0534 67.7672 22.7761 67.5088 22.4057C67.2547 22.0435 67.1265 21.582 67.1265 21.0336C67.1265 20.2597 67.3786 19.6658 67.8974 19.2188C68.4457 18.7469 69.1788 18.3972 70.0758 18.182C71.0084 17.9564 72.128 17.7991 73.4094 17.7143L76.9447 17.4784L76.9426 17.4763Z" fill="#FFF8EC"/>
<path d="M124 26.6294L123.924 25.158L123.887 24.2392C123.874 23.9495 123.868 23.6577 123.868 23.3742V14.5522C123.868 12.9298 123.54 11.4812 122.897 10.2437C122.246 8.99166 121.259 8.00868 119.963 7.32163C118.679 6.64079 117.104 6.29726 115.278 6.29726C115.133 6.29726 114.986 6.29933 114.837 6.30554H109.351V10.0202H114.348V10.0512L114.734 10.0202C114.94 10.0036 115.129 9.99533 115.316 9.99533C116.324 9.99533 117.181 10.194 117.864 10.5851C118.543 10.9742 119.057 11.4895 119.391 12.1206C119.706 12.7146 119.877 13.3726 119.9 14.0742L115.957 14.3515C114.083 14.4777 112.403 14.8005 110.966 15.3075C109.502 15.8249 108.317 16.5823 107.443 17.5611C106.553 18.5586 106.099 19.8354 106.099 21.3523C106.099 22.5899 106.389 23.6618 106.964 24.5393C107.538 25.4167 108.321 26.0851 109.292 26.5238C110.247 26.9543 111.352 27.1736 112.577 27.1736C113.69 27.1736 114.791 26.9812 115.846 26.6004C116.902 26.2196 117.858 25.665 118.686 24.9531C119.181 24.5268 119.618 24.0467 119.994 23.5149V26.6314H123.998L124 26.6294ZM119.883 17.4763V17.5301C119.883 18.6166 119.574 19.6326 118.963 20.5494C118.345 21.4765 117.532 22.2194 116.549 22.7575C115.568 23.2935 114.526 23.5646 113.453 23.5646C112.718 23.5646 112.085 23.459 111.573 23.2541C111.075 23.0534 110.707 22.7761 110.449 22.4057C110.195 22.0435 110.067 21.582 110.067 21.0336C110.067 20.2597 110.319 19.6658 110.838 19.2188C111.386 18.7469 112.119 18.3972 113.016 18.182C113.949 17.9564 115.068 17.7991 116.35 17.7143L119.885 17.4784L119.883 17.4763Z" fill="#FFF8EC"/>
<path d="M37.4284 17.7764C36.8486 16.9838 36.0861 16.3878 35.145 15.9842C34.2019 15.5828 33.0066 15.2517 31.5551 14.9909C31.4375 14.9785 31.3177 14.9619 31.2001 14.9413C31.0804 14.9226 30.9627 14.9061 30.843 14.8916C29.6037 14.6846 28.6752 14.4736 28.0555 14.2583C27.4359 14.0431 27.001 13.772 26.7511 13.4409C26.5011 13.1098 26.3751 12.6649 26.3751 12.1061C26.3751 11.6509 26.4969 11.237 26.7406 10.8603C26.9842 10.4837 27.3539 10.1878 27.8476 9.97463C28.3412 9.75941 28.9441 9.65387 29.6562 9.65387C30.4481 9.65387 31.1203 9.76769 31.6727 9.99533C32.2273 10.223 32.6537 10.5437 32.9583 10.9597C33.2608 11.3756 33.433 11.8557 33.473 12.4021L37.7056 12.4207C37.7056 11.1997 37.3695 10.1154 36.6974 9.16756C36.0252 8.21976 35.0799 7.48305 33.8595 6.95741C32.639 6.43178 31.24 6.16896 29.6583 6.16896C28.0765 6.16896 26.6817 6.42143 25.5558 6.92844C24.4278 7.43545 23.5813 8.14319 23.0141 9.05167C22.447 9.96015 22.1634 11.0135 22.1634 12.2075C22.1634 13.5071 22.4806 14.577 23.1128 15.4214C23.7451 16.2657 24.5833 16.9051 25.6251 17.3397C26.667 17.7743 27.9064 18.0971 29.3432 18.3041C30.4229 18.4593 31.2799 18.6393 31.9143 18.8401C32.5466 19.0408 33.0381 19.3243 33.3868 19.6864C33.7355 20.0507 33.9099 20.5308 33.9099 21.1288C33.9099 21.6648 33.7859 22.1304 33.5423 22.5236C32.5823 23.8667 29.9818 24.2371 28.3853 23.7425C28.3853 23.7425 28.3286 23.726 28.3265 23.726C26.8309 23.2873 25.6588 21.9401 24.3459 21.1371C23.1948 20.4314 21.8756 19.9037 20.5207 19.9679C18.523 20.061 16.8426 21.3813 15.0487 22.2525C13.7064 22.9044 12.2255 23.3204 10.7278 23.2935C8.51163 23.2541 6.54968 22.2091 5.44267 20.3052C5.44057 20.3011 5.43847 20.2949 5.43426 20.2907L20.1531 13.4409C20.025 13.1119 19.9136 12.8346 19.8191 12.6049C19.7246 12.3772 19.6322 12.1682 19.5418 11.9799C18.7541 10.3368 17.6345 8.99787 16.183 7.96315C14.7315 6.92844 13.1014 6.31589 11.2886 6.1255C9.4758 5.93512 7.7008 6.24346 5.95941 7.05467C4.17181 7.88658 2.76651 9.06823 1.74353 10.5996C0.720538 12.131 0.149178 13.8176 0.0231422 15.6552C-0.100793 17.4949 0.254207 19.2829 1.08604 21.0212C1.92628 22.772 3.00388 24.0343 4.52471 25.1063C4.56252 25.1332 4.59823 25.1518 4.63394 25.1746C6.55598 26.4928 8.92125 27.1798 11.3054 27.155C13.532 27.1322 15.7482 26.4783 17.6219 25.2946C18.4579 24.7648 19.294 24.1026 20.2938 23.906C21.1299 23.7425 21.9596 23.9495 22.7116 24.3137C23.4636 24.6758 24.0728 25.1973 24.7807 25.6298C26.2007 26.5011 27.8371 27.0288 29.5049 27.155C31.7652 27.3268 34.3237 27.0184 36.0693 25.4746C37.3927 24.3033 38.2959 22.6105 38.2959 20.895C38.2959 19.6099 38.006 18.571 37.4263 17.7784L37.4284 17.7764ZM4.08358 15.4793C4.17181 14.3391 4.52681 13.3478 5.15068 12.5055C5.77456 11.6633 6.58119 11.0114 7.57057 10.5499C8.46542 10.134 9.39178 9.9229 10.3496 9.91462C11.3075 9.90634 12.1772 10.0988 12.9544 10.4899C13.7337 10.881 14.3198 11.417 14.7189 12.0937L4.17181 17.0024C4.07728 16.4788 4.04787 15.9718 4.08569 15.4814L4.08358 15.4793Z" fill="#FFF8EC"/>
</svg>
