<svg width="60" height="60" viewBox="0 0 60 60" fill="none" xmlns="http://www.w3.org/2000/svg">
<path d="M35.2617 3.81797C35.1328 3.94219 34.9922 4.06992 34.8633 4.2C33.293 3.90469 31.6641 3.75 30 3.75C15.5039 3.75 3.75 15.5039 3.75 30C3.75 44.4961 15.5039 56.25 30 56.25C44.4961 56.25 56.25 44.4961 56.25 30C56.25 28.3359 56.0977 26.707 55.8047 25.1367C55.9336 25.0078 56.0625 24.8672 56.1797 24.7383L58.8516 21.7617C59.6016 24.375 60 27.1406 60 30C60 46.5703 46.5703 60 30 60C13.4297 60 0 46.5703 0 30C0 13.4297 13.4297 0 30 0C32.8594 0 35.5195 0.399141 38.2383 1.14469L35.2617 3.81797ZM32.2852 12.3281L32.7773 15.2578C31.875 15.0937 30.9492 14.8945 29.8945 14.8945C21.7148 14.8945 14.8945 21.7148 14.8945 29.8945C14.8945 38.2852 21.7148 45 29.8945 45C38.2852 45 45 38.2852 45 29.8945C45 29.0508 44.9062 28.0195 44.7422 27.2227L47.6719 27.7148C47.9883 27.7617 48.3047 27.7969 48.6211 27.8203C48.7031 28.5352 48.75 29.2617 48.75 29.8945C48.75 40.3594 40.3594 48.75 30 48.75C19.6406 48.75 11.25 40.3594 11.25 29.8945C11.25 19.6406 19.6406 11.1445 30 11.1445C30.7383 11.1445 31.4648 11.2922 32.1797 11.3754C32.2031 11.693 32.2383 12.0117 32.2852 12.3281ZM40.0195 22.6289L31.3242 31.3242C30.5977 32.0625 29.4023 32.0625 28.6758 31.3242C27.9375 30.5977 27.9375 29.4023 28.6758 28.6758L37.3711 19.9805L35.9883 11.7305C35.6719 9.81914 36.3516 7.88203 37.8047 6.59766L43.4883 1.44961C45.1289 0.0841875 47.5664 0.774727 48.1523 2.74453L50.25 9.74414L57.2578 11.8477C59.2266 12.4336 59.918 14.8711 58.5469 16.4062L53.4023 22.1953C52.1133 23.6484 50.1797 24.3281 48.2695 24.0117L40.0195 22.6289ZM43.2773 19.3711L48.8906 20.3086C49.5234 20.4141 50.168 20.1914 50.6016 19.7109L54.7734 15.0117L49.2891 13.3711L43.2773 19.3711ZM46.6289 10.7156L44.9883 5.22891L40.2891 9.40078C39.8086 9.82852 39.5859 10.4742 39.6914 11.1094L40.6289 16.7227L46.6289 10.7156Z" fill="#EAAF7F"/>
</svg>
