<svg width="60" height="48" viewBox="0 0 60 48" fill="none" xmlns="http://www.w3.org/2000/svg">
<path d="M59.4751 26.1647L49.2516 9.6675C48.9545 9.22313 48.4773 9 48.0001 9C47.5229 9 47.0457 9.22313 46.7485 9.6675L36.5251 26.1647C36.1623 26.7066 35.9542 27.3572 36.0085 28.0059C36.5213 34.1625 41.6945 39 48.0001 39C54.3057 39 59.4788 34.1625 59.9916 28.0059C60.046 27.3572 59.8379 26.7066 59.4751 26.1647ZM48.0001 36C44.102 36 40.7298 33.4566 39.4895 30H56.477C55.2188 33.4903 51.8701 36 48.0001 36ZM39.5373 27L48.0038 13.335L56.5295 27H39.5373ZM50.2501 45H31.5001V11.7881C34.0838 11.1187 36.0001 8.79281 36.0001 6H50.2501C50.6645 6 51.0001 5.66438 51.0001 5.25V3.75C51.0001 3.33562 50.6645 3 50.2501 3H35.146C35.132 2.97563 34.7363 1.95844 33.3545 1.02469C32.3973 0.377813 31.2423 0 30.0001 0C28.7579 0 27.6029 0.377813 26.6457 1.02469C25.2638 1.95844 24.8682 2.97563 24.8542 3H9.75013C9.33575 3 9.00013 3.33562 9.00013 3.75V5.25C9.00013 5.66438 9.33575 6 9.75013 6H24.0001C24.0001 8.79281 25.9163 11.1187 28.5001 11.7881V45H9.75013C9.33575 45 9.00013 45.3356 9.00013 45.75V47.25C9.00013 47.6644 9.33575 48 9.75013 48H50.2501C50.6645 48 51.0001 47.6644 51.0001 47.25V45.75C51.0001 45.3356 50.6645 45 50.2501 45ZM27.0001 6C27.0001 4.34344 28.3435 3 30.0001 3C31.6567 3 33.0001 4.34344 33.0001 6C33.0001 7.65656 31.6567 9 30.0001 9C28.3435 9 27.0001 7.65656 27.0001 6ZM23.9917 28.0059C24.046 27.3572 23.8379 26.7066 23.4751 26.1647L13.2517 9.6675C12.9545 9.22313 12.4773 9 12.0001 9C11.5229 9 11.0457 9.22313 10.7485 9.6675L0.525134 26.1647C0.162321 26.7066 -0.0458037 27.3572 0.00857132 28.0059C0.521384 34.1625 5.69451 39 12.0001 39C18.3057 39 23.4788 34.1625 23.9917 28.0059ZM12.0038 13.335L20.5295 27H3.53732L12.0038 13.335ZM3.4895 30H20.477C19.2188 33.4903 15.8701 36 12.0001 36C8.10201 36 4.72982 33.4566 3.4895 30Z" fill="#EAAF7F"/>
</svg>
