<svg width="61" height="48" viewBox="0 0 61 48" fill="none" xmlns="http://www.w3.org/2000/svg">
<path d="M43.9725 23.9821C43.9725 31.4004 37.9157 37.4126 30.4425 37.4126C22.9693 37.4126 16.9125 31.4004 16.9125 23.9821C16.9125 16.5639 22.9693 10.5516 30.4425 10.5516C37.9157 10.5516 43.9725 16.5639 43.9725 23.9821ZM30.4425 13.9092C24.7451 13.9092 20.295 18.3266 20.295 23.9821C20.295 29.5432 24.7451 34.055 30.4425 34.055C36.0448 34.055 40.59 29.5432 40.59 23.9821C40.59 18.3266 36.0448 13.9092 30.4425 13.9092ZM50.8009 8.93582C55.7478 13.4895 59.0563 18.8513 60.6207 22.6915C60.9696 23.5205 60.9696 24.4438 60.6207 25.2727C59.0563 29.0186 55.7478 34.3803 50.8009 39.0285C45.8223 43.6243 38.9833 47.4855 30.4425 47.4855C21.9017 47.4855 15.0627 43.6243 10.0862 39.0285C5.1393 34.3803 1.8329 29.0186 0.260149 25.2727C-0.0867163 24.4438 -0.0867163 23.5205 0.260149 22.6915C1.8329 18.8513 5.1393 13.4895 10.0862 8.93582C15.0627 4.34423 21.9017 0.47876 30.4425 0.47876C38.9833 0.47876 45.8223 4.34423 50.8009 8.93582ZM3.38251 23.9821C4.79153 27.3398 7.83578 32.3762 12.3884 36.5732C16.9442 40.7703 23.001 44.1279 30.4425 44.1279C37.884 44.1279 43.9408 40.7703 48.4966 36.5732C53.0524 32.3762 56.0966 27.3398 57.5025 23.9821C56.0966 20.5301 53.0524 15.4936 48.4966 11.391C43.9408 7.19292 37.884 3.83639 30.4425 3.83639C23.001 3.83639 16.9442 7.19292 12.3884 11.391C7.83578 15.4936 4.79153 20.5301 3.38251 23.9821Z" fill="#EAAF7F"/>
</svg>
