<?xml version="1.0" encoding="UTF-8" standalone="no"?>
<!-- Created with Inkscape (http://www.inkscape.org/) -->

<svg
   width="85.369934mm"
   height="26.23942mm"
   viewBox="0 0 85.369934 26.23942"
   version="1.1"
   id="svg1"
   xml:space="preserve"
   inkscape:version="1.3.2 (091e20e, 2023-11-25, custom)"
   sodipodi:docname="meka.svg"
   xmlns:inkscape="http://www.inkscape.org/namespaces/inkscape"
   xmlns:sodipodi="http://sodipodi.sourceforge.net/DTD/sodipodi-0.dtd"
   xmlns="http://www.w3.org/2000/svg"
   xmlns:svg="http://www.w3.org/2000/svg"><sodipodi:namedview
     id="namedview1"
     pagecolor="#505050"
     bordercolor="#eeeeee"
     borderopacity="1"
     inkscape:showpageshadow="0"
     inkscape:pageopacity="0"
     inkscape:pagecheckerboard="0"
     inkscape:deskcolor="#505050"
     inkscape:document-units="mm"
     inkscape:zoom="0.44631735"
     inkscape:cx="341.68513"
     inkscape:cy="805.48067"
     inkscape:window-width="1366"
     inkscape:window-height="697"
     inkscape:window-x="-8"
     inkscape:window-y="-8"
     inkscape:window-maximized="1"
     inkscape:current-layer="layer1" /><defs
     id="defs1" /><g
     inkscape:label="Camada 1"
     inkscape:groupmode="layer"
     id="layer1"
     transform="translate(-7.6564452,-13.21357)"><path
       style="fill:#10054a;fill-opacity:1"
       d="m 75.303501,39.333981 c -0.34258,-0.1489 -0.37346,-0.34001 -0.0423,-0.26198 0.63693,0.1501 0.91085,0.14306 1.18744,-0.0305 0.30577,-0.19189 0.44373,-0.4673 0.43981,-0.87794 -0.002,-0.22417 -0.0171,-0.24467 -0.0889,-0.12149 -0.23496,0.40341 -1.08071,0.52878 -1.56171,0.2315 -0.51713,-0.3196 -0.71198,-1.19422 -0.40852,-1.83371 0.32327,-0.68125 1.20751,-0.85656 1.83415,-0.36364 l 0.21539,0.16943 0.0272,-0.18524 c 0.015,-0.10189 0.0749,-0.20093 0.13307,-0.2201 0.0819,-0.027 0.10576,0.28794 0.10551,1.39037 -2.7e-4,1.24506 -0.0204,1.45819 -0.15934,1.686 -0.29841,0.48936 -1.07357,0.68171 -1.68184,0.41733 z m 1.26235,-1.38519 c 0.23606,-0.21092 0.27493,-0.30697 0.30773,-0.7604 0.0363,-0.50166 0.0276,-0.52895 -0.26039,-0.81692 -0.25004,-0.25005 -0.35749,-0.29793 -0.66855,-0.29793 -0.42321,0 -0.69225,0.15658 -0.87446,0.50894 -0.25137,0.48609 -0.10251,1.18303 0.31517,1.47559 0.31642,0.22162 0.86722,0.17063 1.1805,-0.10928 z m 7.54298,1.38519 c -0.34258,-0.1489 -0.37346,-0.34001 -0.0423,-0.26198 0.63693,0.1501 0.91085,0.14306 1.18744,-0.0305 0.30577,-0.19189 0.44374,-0.4673 0.43982,-0.87794 -0.002,-0.22417 -0.0171,-0.24467 -0.0889,-0.12149 -0.23496,0.40341 -1.0807,0.52878 -1.56171,0.2315 -0.51712,-0.3196 -0.71197,-1.19422 -0.40852,-1.83371 0.32328,-0.68125 1.20751,-0.85656 1.83415,-0.36364 l 0.2154,0.16943 0.0272,-0.18524 c 0.015,-0.10189 0.0749,-0.20093 0.13307,-0.2201 0.0819,-0.027 0.10576,0.28794 0.10552,1.39037 -2.8e-4,1.24506 -0.0204,1.45819 -0.15934,1.686 -0.29841,0.48936 -1.07358,0.68171 -1.68185,0.41733 z m 1.26235,-1.38519 c 0.23606,-0.21092 0.27494,-0.30697 0.30773,-0.7604 0.0363,-0.50166 0.0276,-0.52895 -0.26038,-0.81692 -0.25005,-0.25005 -0.3575,-0.29793 -0.66856,-0.29793 -0.20384,0 -0.45552,0.0595 -0.55928,0.13214 -0.57924,0.40571 -0.57924,1.44668 0,1.85239 0.31641,0.22162 0.86722,0.17063 1.18049,-0.10928 z m -31.72634,0.38551 c -0.0787,-0.20504 0.003,-2.43001 0.0898,-2.4515 0.0466,-0.0115 0.0965,0.0621 0.11093,0.16356 l 0.0263,0.18449 0.3124,-0.21335 c 0.41633,-0.28432 0.97959,-0.24157 1.24773,0.0947 0.16221,0.20344 0.18994,0.21171 0.29308,0.0874 0.18201,-0.21931 0.55873,-0.3801 0.89056,-0.3801 0.22648,0 0.37199,0.0649 0.55454,0.24749 0.24747,0.24747 0.24749,0.24754 0.24749,1.31939 0,0.81972 -0.0249,1.06367 -0.10584,1.03693 -0.0733,-0.0242 -0.11883,-0.34075 -0.14816,-1.03066 -0.0391,-0.91824 -0.0579,-1.00826 -0.24222,-1.15741 -0.29049,-0.23506 -0.63871,-0.20433 -0.96295,0.085 -0.27321,0.24378 -0.277,0.25755 -0.31883,1.15742 -0.0289,0.6218 -0.0759,0.9218 -0.14817,0.94567 -0.0799,0.0264 -0.10583,-0.17105 -0.10583,-0.80612 0,-0.4626 -0.0421,-0.96188 -0.0936,-1.10951 -0.18139,-0.52034 -0.70188,-0.58699 -1.14256,-0.14631 l -0.28786,0.28786 v 0.89747 c 0,0.56007 -0.0328,0.89747 -0.0873,0.89747 -0.048,0 -0.1063,-0.0495 -0.1295,-0.10991 z m 4.91494,-0.17037 c -0.619,-0.619 -0.54371,-1.76437 0.14501,-2.20591 0.37876,-0.24282 0.99064,-0.20572 1.33105,0.0807 l 0.26049,0.2192 v -0.22625 c 0,-0.14337 0.0388,-0.21333 0.10584,-0.19097 0.0783,0.0261 0.10583,0.36171 0.10583,1.29116 0,0.92946 -0.0275,1.26506 -0.10583,1.29117 -0.0663,0.0221 -0.10584,-0.0456 -0.10584,-0.18089 v -0.21617 l -0.30815,0.20911 c -0.22524,0.15286 -0.42113,0.20912 -0.72813,0.20912 -0.36251,0 -0.45834,-0.0384 -0.70027,-0.28028 z m 1.30332,-0.11179 c 0.39643,-0.27766 0.54787,-1.00333 0.30672,-1.46966 -0.18026,-0.34858 -0.45036,-0.50894 -0.85722,-0.50894 -0.29854,0 -0.39418,0.0465 -0.61616,0.29928 -0.22659,0.25807 -0.26277,0.36416 -0.26277,0.77047 0,0.42297 0.0294,0.50064 0.28786,0.75905 0.22839,0.22839 0.3557,0.28787 0.61616,0.28787 0.18057,0 0.417,-0.0621 0.52541,-0.13807 z m 1.57107,0.28216 c -0.0794,-0.20695 0.003,-2.43049 0.0898,-2.43367 0.0466,-0.002 0.10372,0.1209 0.127,0.27244 l 0.0423,0.27553 0.15475,-0.23693 c 0.2605,-0.39885 0.98825,-0.59359 0.98825,-0.26445 0,0.0701 -0.10535,0.10657 -0.29241,0.10127 -0.60766,-0.0172 -0.89292,0.50383 -0.89292,1.631 0,0.46888 -0.0338,0.76472 -0.0873,0.76472 -0.048,0 -0.1063,-0.0495 -0.1295,-0.10991 z m 1.99483,-1.79509 c 0,-1.49757 0.0233,-1.91141 0.10583,-1.88402 0.0754,0.025 0.11802,0.38404 0.14817,1.2475 l 0.0423,1.2124 0.75576,-0.64777 c 0.41567,-0.35628 0.78714,-0.64778 0.8255,-0.64778 0.19217,0 0.0212,0.25896 -0.45387,0.68739 l -0.5275,0.47572 0.58136,0.64957 c 0.43904,0.49055 0.55747,0.67347 0.48374,0.7472 -0.0737,0.0737 -0.24556,-0.0629 -0.70189,-0.55814 l -0.60425,-0.65578 -0.19655,0.18465 c -0.1454,0.1366 -0.2031,0.29571 -0.22175,0.61153 -0.0146,0.24674 -0.0699,0.4416 -0.13105,0.46176 -0.0826,0.0272 -0.10583,-0.38679 -0.10583,-1.88423 z m 3.302,1.8452 c -0.43077,-0.15747 -0.762,-0.70429 -0.762,-1.25797 0,-0.74065 0.52228,-1.32999 1.17865,-1.32999 0.60368,0 1.03781,0.37066 1.15295,0.98438 l 0.0579,0.30871 h -1.02808 c -0.81338,0 -1.03778,0.0253 -1.07454,0.12107 -0.0745,0.1942 0.22284,0.72214 0.48232,0.85633 0.34295,0.17734 0.85964,0.15603 1.11656,-0.0461 0.1184,-0.0931 0.25689,-0.16933 0.30775,-0.16933 0.17392,0 0.0926,0.16061 -0.19068,0.37669 -0.21914,0.16715 -0.37706,0.21447 -0.6985,0.20929 -0.22844,-0.004 -0.47249,-0.0276 -0.54234,-0.0531 z m 1.27,-1.71068 c 0,-0.089 -0.11722,-0.26044 -0.2605,-0.381 -0.37363,-0.31439 -0.85413,-0.30292 -1.18535,0.0283 -0.4432,0.4432 -0.36016,0.51451 0.59918,0.51451 0.7771,0 0.84667,-0.0133 0.84667,-0.16181 z m 1.39692,1.65407 c -0.15079,-0.1101 -0.17232,-0.23984 -0.19733,-1.18893 l -0.0281,-1.06533 h -0.25415 c -0.31565,0 -0.28472,-0.19977 0.0369,-0.23799 0.18836,-0.0224 0.22539,-0.0731 0.24748,-0.33867 0.036,-0.43352 0.27026,-0.42957 0.30624,0.005 0.0249,0.30026 0.0421,0.3175 0.3175,0.3175 0.20242,0 0.29123,0.0387 0.29123,0.127 0,0.0889 -0.0897,0.127 -0.29894,0.127 h -0.29894 l 0.0238,1.03717 0.0238,1.03716 0.23785,0.0273 c 0.13597,0.0156 0.22384,0.07 0.20514,0.127 -0.0493,0.15019 -0.42054,0.16574 -0.6124,0.0257 z m 1.35229,0.0135 c -0.0247,-0.0643 -0.0342,-0.64852 -0.0212,-1.29821 0.0197,-0.98304 0.045,-1.18126 0.15067,-1.18126 0.10721,0 0.127,0.19677 0.127,1.26295 0,0.93481 -0.0275,1.2721 -0.10579,1.29821 -0.0582,0.0194 -0.12599,-0.0174 -0.15067,-0.0817 z m 1.11355,-0.0275 c -0.029,-0.0756 -0.0528,-0.62502 -0.0528,-1.22088 0,-0.80302 0.0294,-1.10777 0.11362,-1.17767 0.13778,-0.11434 0.22505,-0.0418 0.22505,0.1871 0,0.1656 0.005,0.16518 0.1981,-0.0161 0.43659,-0.41015 1.18947,-0.38411 1.47486,0.051 0.20381,0.31074 0.22138,2.26458 0.0204,2.26458 -0.10374,0 -0.13476,-0.19129 -0.16933,-1.04426 -0.0368,-0.9072 -0.0639,-1.06001 -0.20669,-1.16417 -0.26758,-0.19522 -0.76075,-0.14983 -1.05409,0.097 -0.25544,0.21494 -0.25799,0.22541 -0.28167,1.15727 -0.0153,0.60267 -0.0581,0.95173 -0.11929,0.97201 -0.0525,0.0174 -0.11915,-0.0302 -0.14817,-0.10586 z m 7.96674,-0.0201 c -0.52298,-0.32405 -0.72007,-1.25322 -0.39922,-1.88213 0.33912,-0.66473 1.28057,-0.84187 1.74386,-0.32812 0.15952,0.17689 0.16121,0.17178 0.20319,-0.61431 0.0336,-0.62935 0.0685,-0.79269 0.16934,-0.79269 0.10904,0 0.127,0.26341 0.127,1.86267 0,1.59926 -0.018,1.86266 -0.127,1.86266 -0.0699,0 -0.13932,-0.0868 -0.15436,-0.19281 l -0.0274,-0.19282 -0.25431,0.21398 c -0.30868,0.25974 -0.9159,0.28987 -1.28114,0.0636 z m 1.12838,-0.21211 c 0.28124,-0.22162 0.41945,-0.52869 0.41945,-0.93188 0,-0.70786 -0.31005,-1.07126 -0.91668,-1.07438 -0.29131,-10e-4 -0.41575,0.0475 -0.6076,0.23938 -0.44468,0.44468 -0.41549,1.3306 0.0561,1.70153 0.24972,0.19643 0.83606,0.23296 1.04876,0.0653 z m 1.56,0.25966 c -0.0247,-0.0643 -0.0342,-0.64852 -0.0212,-1.29821 0.0197,-0.98304 0.045,-1.18126 0.15067,-1.18126 0.10721,0 0.127,0.19677 0.127,1.26295 0,0.93481 -0.0275,1.2721 -0.10579,1.29821 -0.0582,0.0194 -0.12598,-0.0174 -0.15066,-0.0817 z m 4.33456,0.0464 c -0.031,-0.031 -0.0564,-0.62159 -0.0564,-1.31233 0,-1.0599 0.0198,-1.25589 0.127,-1.25589 0.10743,0 0.127,0.20226 0.127,1.31233 0,1.19902 -0.0346,1.41886 -0.19756,1.25589 z m 1.46756,-0.0241 c -0.098,-0.0633 -0.13667,-0.32954 -0.16933,-1.16493 l -0.0423,-1.08284 -0.23283,-0.0268 c -0.32558,-0.0375 -0.30736,-0.26954 0.0212,-0.26954 0.23988,0 0.254,-0.0188 0.254,-0.33867 0,-0.24459 0.0353,-0.33866 0.127,-0.33866 0.0914,0 0.127,0.0935 0.127,0.33355 0,0.32298 0.01,0.33439 0.31095,0.35984 0.44665,0.0377 0.4759,0.23794 0.0348,0.23794 h -0.34572 v 0.95673 c 0,0.99219 0.0524,1.15994 0.36265,1.15994 0.23132,0 0.12901,0.20749 -0.11518,0.2336 -0.11283,0.0121 -0.26229,-0.015 -0.33214,-0.0602 z m 1.75417,-0.0699 c -0.52298,-0.32405 -0.72007,-1.25322 -0.39923,-1.88213 0.33868,-0.66387 1.2796,-0.84176 1.74314,-0.32956 l 0.16013,0.17694 0.0469,-0.19858 c 0.0258,-0.10922 0.10231,-0.19859 0.17006,-0.19859 0.10232,0 0.12318,0.21505 0.12318,1.27 0,1.07245 -0.0197,1.27 -0.127,1.27 -0.0698,0 -0.13931,-0.0868 -0.15436,-0.19281 l -0.0274,-0.19282 -0.2543,0.21398 c -0.30868,0.25974 -0.9159,0.28987 -1.28114,0.0636 z m 1.28506,-0.40286 c 0.22244,-0.25335 0.26277,-0.3674 0.26277,-0.74316 0,-0.69492 -0.31843,-1.06714 -0.91668,-1.07154 -0.67138,-0.005 -1.09378,0.69415 -0.87024,1.44027 0.13142,0.43864 0.44564,0.67371 0.90057,0.67371 0.30702,0 0.39998,-0.0446 0.62358,-0.29928 z m 1.46763,-1.32295 c 0.0146,-1.20739 0.0534,-1.88378 0.10747,-1.87027 0.13542,0.0339 0.1131,3.68058 -0.0228,3.72588 -0.0852,0.0284 -0.10274,-0.35684 -0.0847,-1.85561 z m -77.701196,-0.246 c -1.720469,-0.36673 -3.248775,-1.14768 -4.496163,-2.29748 l -0.372927,-0.34375 -1.2061216,0.18158 c -0.663367,0.0999 -1.269438,0.18107 -1.346825,0.18046 -0.114627,-9e-4 -0.04092,-0.24998 0.397717,-1.344 l 0.53842,-1.34289 -0.255418,-0.62561 c -0.498502,-1.22101 -0.620368,-1.91268 -0.617418,-3.50428 0.0024,-1.28528 0.0266,-1.52793 0.226245,-2.26715 1.121705,-4.1532 4.7005646,-6.91918 8.9526196,-6.91918 2.971152,0 5.640527,1.32973 7.389436,3.68101 1.326792,1.78376 1.914954,3.71549 1.81553,5.96281 -0.12094,2.73365 -1.363692,5.16612 -3.48608,6.8234 -0.897657,0.70094 -1.735486,1.14771 -2.840015,1.51442 -1.519632,0.50453 -3.229355,0.61392 -4.699,0.30066 z m -2.413,-7.51184 c 0,-3.2027 0.03341,-3.50419 0.489025,-4.4128 0.26213,-0.52275 0.799024,-1.11041 1.207439,-1.32161 0.153079,-0.0792 0.491223,-0.1625 0.751431,-0.18519 0.39892,-0.0348 0.51849,-0.0101 0.762542,0.15744 0.49534,0.34005 0.501371,0.39639 0.508455,4.74953 l 0.0064,3.95817 h 1.016 1.016 v -2.94554 c 0,-3.21732 0.02878,-3.47114 0.499384,-4.40339 0.266606,-0.52815 0.814886,-1.1307 1.231241,-1.35311 0.162457,-0.0868 0.469499,-0.13973 0.823491,-0.142 0.483716,-0.003 0.595751,0.0257 0.783295,0.20175 0.120366,0.11296 0.256676,0.34156 0.302912,0.508 0.05004,0.18012 0.08426,1.88777 0.08454,4.21846 l 4.72e-4,3.91583 h 1.016 1.016 v -3.6365 c 0,-3.72951 -0.03544,-4.22782 -0.34411,-4.83818 -0.197359,-0.39026 -0.653031,-0.7895 -1.066795,-0.93468 -0.519045,-0.18212 -1.5909,-0.13528 -2.187428,0.0956 -0.670082,0.25934 -1.545608,1.11704 -1.895519,1.85692 l -0.246594,0.52143 -0.06081,-0.44813 c -0.142649,-1.05126 -0.623322,-1.76514 -1.363179,-2.02456 -0.516884,-0.18124 -1.593514,-0.13714 -2.175742,0.0891 -0.699034,0.27165 -1.490835,1.03252 -1.876278,1.80297 l -0.298213,0.59609 v -1.28137 c 0,-0.70476 -0.02701,-1.28138 -0.06002,-1.28138 -0.03301,0 -0.366384,0.13029 -0.740833,0.28954 -0.37445,0.15924 -1.042708,0.37712 -1.485019,0.48418 l -0.8042006,0.19465 0.349211,0.0691 c 0.6998106,0.13839 0.6635056,-0.0948 0.6900836,4.4324 l 0.02356,4.01284 h 1.013608 1.013609 z m 57.996666,6.41687 c 0,-0.11289 0.0565,-0.16933 0.16934,-0.16933 0.11288,0 0.16933,0.0564 0.16933,0.16933 0,0.11289 -0.0564,0.16934 -0.16933,0.16934 -0.11289,0 -0.16934,-0.0565 -0.16934,-0.16934 z m 11.76867,0 c 0,-0.11289 0.0564,-0.16933 0.16933,-0.16933 0.11289,0 0.16934,0.0564 0.16934,0.16933 0,0.11289 -0.0564,0.16934 -0.16934,0.16934 -0.11289,0 -0.16933,-0.0565 -0.16933,-0.16934 z m 4.27567,0.0847 c -0.0782,-0.12649 0.0306,-0.254 0.21666,-0.254 0.10789,0 0.16434,0.0582 0.16434,0.16933 0,0.17959 -0.28342,0.24257 -0.381,0.0847 z m -27.38967,-1.1536 c -3.96407,-0.77323 -6.31744,-4.02087 -5.84685,-8.06866 0.2308,-1.9853 0.96541,-3.62192 2.09622,-4.67013 1.18898,-1.10213 2.61737,-1.60161 4.58018,-1.60161 1.16091,0 1.98733,0.17476 2.8824,0.60955 0.6907,0.3355 1.58978,1.20176 1.87179,1.80345 0.26144,0.55781 0.32944,1.48881 0.1477,2.02219 -0.30368,0.89124 -0.87088,1.33015 -3.09525,2.39511 -1.96856,0.94249 -5.09152,2.57624 -5.09152,2.66359 0,0.15165 1.00412,1.07492 1.48247,1.36311 0.27985,0.16859 0.81325,0.41218 1.18534,0.54131 0.59508,0.20651 0.80392,0.23529 1.73485,0.23906 0.88014,0.004 1.16526,-0.029 1.69334,-0.19373 0.78586,-0.24507 1.37786,-0.57647 1.95753,-1.09582 0.24524,-0.21972 0.42579,-0.34234 0.40122,-0.27249 -0.0246,0.0699 -0.28911,0.90458 -0.58788,1.85495 l -0.54321,1.72794 -0.35716,0.15867 c -0.80194,0.35626 -1.63105,0.50484 -2.98717,0.53531 -0.72178,0.0162 -1.40758,0.0109 -1.524,-0.0118 z m -1.43186,-5.85872 c 2.02196,-1.3301 3.39798,-2.60149 3.98296,-3.68009 0.26056,-0.48044 0.28516,-0.58816 0.28441,-1.24559 -9.5e-4,-0.81816 -0.16919,-1.29141 -0.68129,-1.91636 -0.62114,-0.75803 -2.1547,-1.24434 -3.32806,-1.05538 -0.726,0.11692 -1.21531,0.35749 -1.68747,0.82965 -0.76874,0.76874 -1.11802,1.79768 -1.11802,3.29353 0,1.11209 0.17225,2.11466 0.51497,2.99723 0.27168,0.69961 0.71942,1.524 0.82771,1.524 0.0381,0 0.58025,-0.33615 1.20479,-0.74699 z m 24.60046,5.78327 c -1.18503,-0.30056 -2.26121,-1.13019 -2.54448,-1.96152 -0.29724,-0.87236 -0.0894,-2.06075 0.54352,-3.1073 0.66468,-1.09913 2.27569,-2.52702 3.93855,-3.49088 0.39244,-0.22747 0.71433,-0.43625 0.71533,-0.46396 0.003,-0.0813 -1.74353,-0.64949 -2.69541,-0.87686 -0.4823,-0.1152 -1.25269,-0.25635 -1.712,-0.31367 -0.83353,-0.10402 -0.83501,-0.10463 -0.78426,-0.32066 0.25396,-1.08112 1.44693,-2.44565 2.659,-3.04141 0.98506,-0.48417 1.85027,-0.68869 2.91348,-0.68869 1.09008,0 1.72278,0.11615 2.40982,0.44238 1.03245,0.49025 1.71093,1.43094 2.16705,3.00454 0.11863,0.40925 0.42125,1.60133 0.6725,2.64908 0.98101,4.0909 1.90697,8.00766 1.90697,8.06638 0,0.0339 -0.66675,0.0616 -1.48167,0.0616 h -1.48167 l -0.005,-2.01083 -0.005,-2.01084 -0.19912,0.57479 c -0.55153,1.5921 -1.85962,2.77119 -3.72795,3.36033 -0.7806,0.24614 -2.55138,0.31477 -3.28973,0.1275 z m 4.37752,-0.91457 c 1.23985,-0.57162 2.38828,-2.14038 2.48943,-3.40057 0.0478,-0.59607 -0.11983,-1.28895 -0.46733,-1.93102 -0.3017,-0.55747 -1.39285,-1.57643 -2.18409,-2.03961 l -0.65651,-0.3843 -0.43098,0.35564 c -2.22456,1.83574 -3.35447,4.19957 -2.79385,5.84491 0.27262,0.80008 1.19791,1.5444 2.17877,1.75261 0.54741,0.1162 1.37381,0.0286 1.86456,-0.19766 z m 2.84921,-6.84023 v -2.80317 l -0.23283,0.0569 c -0.37748,0.0922 -1.96658,0.87286 -2.55197,1.25363 -0.46922,0.30521 -0.52115,0.3637 -0.39079,0.44009 1.37417,0.80516 2.25372,1.6457 2.70292,2.58302 0.15958,0.33299 0.31552,0.75558 0.34652,0.93908 0.031,0.18351 0.0721,0.33365 0.0913,0.33365 0.0192,0 0.0349,-1.26143 0.0349,-2.80318 z m -3.33159,-1.861 c 0.8549,-0.395 2.1486,-0.917 2.80243,-1.13076 0.39279,-0.12843 0.4445,-0.17233 0.4445,-0.37745 0,-0.742 -0.68029,-1.69849 -1.45801,-2.04994 -0.37694,-0.17034 -0.57969,-0.20165 -1.29366,-0.19979 -0.99488,0.003 -1.68967,0.20155 -2.47146,0.70769 -1.14424,0.74081 -1.77081,2.01096 -1.22791,2.48916 0.0788,0.0694 0.46722,0.22712 0.86304,0.35036 0.39581,0.12325 0.89111,0.29502 1.10066,0.38172 0.20955,0.0867 0.40578,0.16159 0.43607,0.16641 0.0303,0.005 0.39224,-0.147 0.80434,-0.3374 z m -55.512215,3.75402 c -3.03e-4,-3.72828 -0.03179,-5.93359 -0.08758,-6.13449 -0.113523,-0.40874 -0.423368,-0.6434 -0.940048,-0.71194 -0.229288,-0.0304 -0.404985,-0.0672 -0.390439,-0.0817 0.01455,-0.0146 0.330144,-0.0883 0.701328,-0.16381 1.077518,-0.21932 2.466152,-0.71588 3.617047,-1.29343 0.03493,-0.0175 0.06628,0.93334 0.06969,2.11303 l 0.0062,2.14489 0.157003,-0.4416 c 0.524252,-1.47453 1.623947,-2.79104 2.797342,-3.34887 0.868781,-0.41301 1.413623,-0.51592 2.480359,-0.46848 0.787872,0.035 0.957196,0.0714 1.440942,0.30957 0.301489,0.14842 0.671335,0.41014 0.821881,0.58161 0.567309,0.64613 0.917708,1.74006 0.929577,2.9021 l 0.0048,0.46567 0.244506,-0.65786 c 0.657842,-1.76997 2.181965,-3.17979 3.823575,-3.53683 0.770834,-0.16766 2.133563,-0.0729 2.703453,0.18803 0.632061,0.28936 1.017171,0.64638 1.327711,1.23084 0.50979,0.95946 0.52852,1.2168 0.52852,7.25958 v 5.46457 h -1.47897 -1.478979 l -0.02386,-6.0325 -0.02386,-6.0325 -0.198633,-0.40336 c -0.604677,-1.22792 -2.415595,-1.14624 -3.727386,0.16812 -0.803919,0.8055 -1.406958,2.0765 -1.611888,3.39731 -0.05744,0.3702 -0.09243,2.16799 -0.09243,4.74931 v 4.15362 h -1.481666 -1.481667 v -5.86897 c 0,-5.03978 -0.01843,-5.93104 -0.130474,-6.30831 -0.415143,-1.39794 -2.099766,-1.57517 -3.577875,-0.37642 -0.50768,0.41174 -1.150656,1.36032 -1.452365,2.14268 -0.472505,1.22524 -0.511953,1.70863 -0.511953,6.27344 v 4.13758 h -1.481666 -1.481667 z m 36.407145,-3.41056 c 0,-9.94375 0.0119,-9.67035 -0.43133,-9.90756 -0.10542,-0.0564 -0.38487,-0.12926 -0.62101,-0.16187 -0.47061,-0.065 -0.51187,-0.0451 0.629,-0.30368 0.88531,-0.20067 1.78196,-0.50714 2.61522,-0.89387 0.39062,-0.1813 0.724,-0.32963 0.74084,-0.32963 0.0168,0 0.0306,3.05118 0.0306,6.78039 0,3.72921 0.0309,6.76769 0.0687,6.75217 0.10548,-0.0433 1.29932,-1.36041 2.17445,-2.39889 2.30441,-2.73459 2.75461,-3.94769 1.58101,-4.26017 -0.22306,-0.0594 0.38086,-0.0846 2.14485,-0.0895 l 2.45533,-0.007 -0.508,0.27477 c -0.68944,0.37291 -1.14922,0.69763 -2.39561,1.69192 -1.37148,1.09408 -3.97917,3.44829 -3.81934,3.44809 0.0189,-3e-5 0.24384,-0.0833 0.49995,-0.18505 0.35846,-0.14242 0.65086,-0.18627 1.27,-0.19046 0.73874,-0.005 0.84134,0.015 1.25805,0.24585 0.56873,0.31501 0.96075,0.7673 1.32328,1.5267 0.22862,0.47889 2.41401,6.9814 2.41401,7.18275 0,0.0309 -0.6638,0.0563 -1.47511,0.0563 h -1.4751 l -0.0865,-0.27517 c -0.0476,-0.15134 -0.31927,-1.03716 -0.60381,-1.9685 -1.19528,-3.91233 -1.44614,-4.54047 -2.02048,-5.05935 -0.78418,-0.70846 -1.90338,-0.58838 -2.50937,0.26923 l -0.254,0.35947 -0.024,3.33716 -0.024,3.33716 h -1.47885 -1.47885 z"
       id="path1"
       inkscape:export-filename="logo.svg"
       inkscape:export-xdpi="96"
       inkscape:export-ydpi="96" /></g></svg>
