<?xml version="1.0" encoding="UTF-8" standalone="no"?>
<!-- Created with Inkscape (http://www.inkscape.org/) -->

<svg
   width="95.914764mm"
   height="40.920696mm"
   viewBox="0 0 95.914764 40.920696"
   version="1.1"
   id="svg1"
   xml:space="preserve"
   inkscape:version="1.3.2 (091e20e, 2023-11-25, custom)"
   sodipodi:docname="blis3.svg"
   xmlns:inkscape="http://www.inkscape.org/namespaces/inkscape"
   xmlns:sodipodi="http://sodipodi.sourceforge.net/DTD/sodipodi-0.dtd"
   xmlns="http://www.w3.org/2000/svg"
   xmlns:svg="http://www.w3.org/2000/svg"><sodipodi:namedview
     id="namedview1"
     pagecolor="#505050"
     bordercolor="#eeeeee"
     borderopacity="1"
     inkscape:showpageshadow="0"
     inkscape:pageopacity="0"
     inkscape:pagecheckerboard="0"
     inkscape:deskcolor="#505050"
     inkscape:document-units="mm"
     inkscape:zoom="0.31559402"
     inkscape:cx="68.125499"
     inkscape:cy="689.17656"
     inkscape:window-width="1366"
     inkscape:window-height="697"
     inkscape:window-x="-8"
     inkscape:window-y="509"
     inkscape:window-maximized="1"
     inkscape:current-layer="layer1" /><defs
     id="defs1" /><g
     inkscape:label="Camada 1"
     inkscape:groupmode="layer"
     id="layer1"
     transform="translate(-223.69257,520.0443)"><rect
       style="fill:#333333;fill-opacity:1;stroke-width:1.87578"
       id="rect5"
       width="208.4583"
       height="142.89481"
       x="167.84109"
       y="-569.68213"
       inkscape:export-filename="aps.png"
       inkscape:export-xdpi="96"
       inkscape:export-ydpi="96" /><g
       id="g10"
       transform="matrix(1.4179104,0,0,1.4179104,256.71357,-56.712076)"
       style="fill:#f8f8f8;fill-opacity:1"
       inkscape:export-filename="lg_black.png"
       inkscape:export-xdpi="300"
       inkscape:export-ydpi="300"><path
         style="fill:#f8f8f8;fill-opacity:1"
         d="m -23.288496,-315.77086 v -11.00031 l 4.7625,0.0862 c 4.502904,0.0815 4.827399,0.1223 5.953125,0.7477 1.372763,0.76265 2.38125,2.44711 2.38125,3.97737 0,1.5167 -1.257887,3.69596 -2.683146,4.64851 l -1.227938,0.82066 1.419608,0.44749 c 3.1444453,0.9912 4.5558683,3.41932 3.8055813,6.54687 -0.474563,1.9782 -2.0141003,3.45378 -4.3592273,4.17812 -1.47289,0.45492 -2.473994,0.54766 -5.912435,0.54766 h -4.139318 z m 8.334375,9.65736 c 1.647291,-0.37588 3.056716,-1.42065 3.694862,-2.73888 0.694267,-1.43416 0.679999,-2.40456 -0.05684,-3.86576 -0.472272,-0.93655 -0.900695,-1.33335 -2.072851,-1.91987 -1.636727,-0.81898 -4.328422,-1.18165 -6.430495,-0.86642 l -1.23244,0.18481 0.07232,4.53524 0.07232,4.53524 0.661459,0.18376 c 1.014868,0.28193 3.962719,0.25512 5.291666,-0.0481 z m -0.03816,-11.54183 c 2.036596,-1.02718 2.551698,-1.81774 2.551698,-3.91627 0,-1.28988 -0.128566,-1.85479 -0.552571,-2.42799 -1.130978,-1.52895 -3.484982,-2.14848 -6.300471,-1.65819 l -1.745916,0.30404 v 4.37518 4.37517 l 2.288769,-0.15534 c 1.77176,-0.12024 2.620765,-0.32278 3.758491,-0.8966 z m 10.2857193,12.15718 c 0.25829,-0.92361 0.268758,-19.2204 0.01166,-20.37293 l -0.191823,-0.8599 1.382448,-1.5e-4 1.382447,-1.5e-4 -0.08033,10.2957 -0.08033,10.2957 1.80012396,0.10019 c 1.78000904,0.0991 7.46705904,-0.18166 8.88127904,-0.4384 0.68167,-0.12376 0.71949,-0.0839 0.55874,0.58896 -0.0948,0.39694 -0.22253,0.811 -0.28376,0.92014 -0.0612,0.10914 -3.14266,0.19844 -6.847623,0.19844 h -6.736301 z m 16.4969017,-0.26459 c 0.12673,-0.5457 0.23041,-5.04032 0.23041,-9.98803 0,-4.9477 -0.10368,-9.44231 -0.23041,-9.98802 l -0.230402,-0.99219 h 1.541166 1.54117 l -0.24611,0.85815 c -0.13537,0.47199 -0.24612,5.02691 -0.24612,10.12206 0,5.09515 0.11075,9.65009 0.24612,10.12207 l 0.24611,0.85815 h -1.54117 -1.541166 z m 24.395344,0.0947 c -1.93328,-0.48411 -2.23343,-0.79762 -2.13848,-2.23366 0.0958,-1.44904 0.53151,-1.66964 1.16836,-0.59155 0.62062,1.05062 1.84059,1.60603 3.52771,1.60603 2.20736,0 3.71719,-1.10565 3.71719,-2.7221 0,-1.60575 -0.75943,-2.33653 -4.45745,-4.28936 -2.72449,-1.43873 -3.38494,-2.10445 -3.76474,-3.79482 -0.29949,-1.33294 0.10524,-2.47509 1.24429,-3.51137 1.03315,-0.93993 2.2314,-1.29557 4.3054,-1.27783 2.30872,0.0197 3.57151,0.45551 3.68709,1.27235 0.14512,1.02567 -0.28492,1.16527 -1.77741,0.57699 -2.49052,-0.98167 -4.9674,-0.45173 -5.59421,1.19691 -0.63239,1.66333 0.36052,2.77119 4.28087,4.7765 3.24189,1.65827 3.97234,2.47411 3.97234,4.4367 0,3.44 -3.913,5.62145 -8.17096,4.55521 z"
         id="path9"
         sodipodi:nodetypes="ccsssscssssccssssscccssssssscccsssscccccssccscscsscccsssccccsssssssssssssss" /><path
         d="m 21.565964,-305.1081 c -2.39848,-0.60059 -2.77084,-0.98955 -2.65305,-2.77113 0.11885,-1.79772 0.6594,-2.07141 1.44949,-0.7339 0.76997,1.30343 2.28349,1.99249 4.37658,1.99249 2.7385,0 4.61164,-1.3717 4.61164,-3.37711 0,-1.99214 -0.94217,-2.89877 -5.53004,-5.32149 -3.38007,-1.78494 -4.19943,-2.61084 -4.67063,-4.70796 -0.37155,-1.65368 0.13056,-3.07066 1.54371,-4.3563 1.28174,-1.1661 2.76833,-1.60732 5.34138,-1.58532 2.86426,0.0245 4.43091,0.56512 4.57432,1.57852 0.18002,1.27248 -0.35349,1.44567 -2.20512,0.71583 -3.0898,-1.21789 -6.16268,-0.56043 -6.94032,1.48492 -0.78456,2.06357 0.44727,3.43802 5.31096,5.92585 4.02198,2.0573 4.92819,3.06944 4.92819,5.50429 0,4.26776 -4.85457,6.97411 -10.13711,5.65131 z"
         style="fill:#f8f8f8;fill-opacity:1;stroke-width:0.874968"
         id="path1-5" /><path
         d="m 35.991884,-325.71248 v -0.79375 h 3.3073 3.30729 v 0.79375 0.79375 h -3.30729 -3.3073 z"
         style="fill:#f8f8f8;fill-opacity:1"
         id="path10" /><text
         xml:space="preserve"
         style="font-style:normal;font-variant:normal;font-weight:normal;font-stretch:normal;font-size:5.76057px;line-height:0;font-family:Serif;-inkscape-font-specification:Serif;text-align:center;letter-spacing:0px;text-anchor:middle;fill:#f8f8f8;fill-opacity:1;stroke-width:4.32044"
         x="10.995086"
         y="-299.15457"
         id="text10"><tspan
           sodipodi:role="line"
           id="tspan10"
           x="10.995086"
           y="-299.15457"
           style="fill:#f8f8f8;fill-opacity:1;stroke-width:4.32044">Agência de Marketing</tspan></text></g></g></svg>
