<?xml version="1.0" encoding="UTF-8" standalone="no"?>
<!-- Created with Inkscape (http://www.inkscape.org/) -->

<svg
   width="95.914749mm"
   height="40.967751mm"
   viewBox="0 0 95.914749 40.967751"
   version="1.1"
   id="svg1"
   xml:space="preserve"
   inkscape:version="1.3.2 (091e20e, 2023-11-25, custom)"
   sodipodi:docname="blis3.svg"
   xmlns:inkscape="http://www.inkscape.org/namespaces/inkscape"
   xmlns:sodipodi="http://sodipodi.sourceforge.net/DTD/sodipodi-0.dtd"
   xmlns="http://www.w3.org/2000/svg"
   xmlns:svg="http://www.w3.org/2000/svg"><sodipodi:namedview
     id="namedview1"
     pagecolor="#505050"
     bordercolor="#eeeeee"
     borderopacity="1"
     inkscape:showpageshadow="0"
     inkscape:pageopacity="0"
     inkscape:pagecheckerboard="0"
     inkscape:deskcolor="#505050"
     inkscape:document-units="mm"
     inkscape:zoom="0.31559402"
     inkscape:cx="68.125499"
     inkscape:cy="689.17656"
     inkscape:window-width="1366"
     inkscape:window-height="697"
     inkscape:window-x="-8"
     inkscape:window-y="509"
     inkscape:window-maximized="1"
     inkscape:current-layer="layer1" /><defs
     id="defs1" /><g
     inkscape:label="Camada 1"
     inkscape:groupmode="layer"
     id="layer1"
     transform="translate(-224.32241,380.2155)"><rect
       style="fill:#f8f8f8;fill-opacity:1;stroke-width:1.87578"
       id="rect6"
       width="208.4583"
       height="142.89481"
       x="167.84109"
       y="-426.24759" /><g
       id="g12"><path
         style="fill:#333333;fill-opacity:1;stroke-width:1.41791"
         d="m 224.32242,-364.61808 v -15.59745 l 6.7528,0.12228 c 6.38472,0.11561 6.84482,0.17341 8.441,1.06017 1.94645,1.08137 3.3764,3.46978 3.3764,5.63955 0,2.15054 -1.78357,5.24055 -3.80446,6.59117 l -1.74111,1.16363 2.01288,0.6345 c 4.45854,1.40543 6.45981,4.84829 5.39597,9.28287 -0.67289,2.80491 -2.85581,4.89715 -6.18099,5.92419 -2.08843,0.64504 -3.5079,0.77654 -8.3833,0.77654 h -5.86919 z m 11.8174,13.69326 c 2.33571,-0.53296 4.33415,-2.01433 5.23898,-3.88347 0.98441,-2.03352 0.96418,-3.40946 -0.0806,-5.48131 -0.66964,-1.32793 -1.27711,-1.89056 -2.93912,-2.72219 -2.32073,-1.16124 -6.13731,-1.67548 -9.11786,-1.22852 l -1.74749,0.26206 0.10254,6.43055 0.10254,6.43056 0.93789,0.26055 c 1.439,0.39976 5.61878,0.36174 7.50311,-0.0682 z m -0.0541,-16.36527 c 2.88771,-1.45644 3.61808,-2.57739 3.61808,-5.55292 0,-1.82893 -0.18229,-2.62993 -0.78349,-3.44267 -1.60363,-2.16791 -4.9414,-3.04635 -8.93351,-2.35116 l -2.47555,0.4311 v 6.2036 6.20361 l 3.24527,-0.22025 c 2.5122,-0.1705 3.71601,-0.45768 5.3292,-1.27131 z m 14.58423,17.23779 c 0.36623,-1.3096 0.38108,-27.2528 0.0165,-28.88698 l -0.27198,-1.21926 1.96018,-2.2e-4 1.96019,-2.2e-4 -0.1139,14.59838 -0.1139,14.59838 2.55241,0.14206 c 2.5239,0.14052 10.58762,-0.25758 12.59286,-0.62161 0.96655,-0.17547 1.02017,-0.11892 0.79224,0.83509 -0.13441,0.56283 -0.31552,1.14993 -0.40234,1.30468 -0.0868,0.15475 -4.45601,0.28137 -9.70932,0.28137 h -9.55147 z m 23.39112,-0.37517 c 0.1797,-0.77375 0.3267,-7.14671 0.3267,-14.16212 0,-7.0154 -0.147,-13.38836 -0.3267,-14.16212 l -0.32668,-1.40683 h 2.18522 2.18524 l -0.34896,1.21678 c -0.19194,0.66923 -0.34897,7.12771 -0.34897,14.35217 0,7.22447 0.15703,13.68295 0.34897,14.35218 l 0.34896,1.21678 h -2.18524 -2.18522 z m 34.59041,0.13428 c -2.74122,-0.68643 -3.1668,-1.13096 -3.03217,-3.16712 0.13583,-2.05461 0.75363,-2.3674 1.65663,-0.83877 0.87998,1.48969 2.60979,2.27721 5.00197,2.27721 3.12984,0 5.27065,-1.56771 5.27065,-3.8597 0,-2.2768 -1.07681,-3.31299 -6.32027,-6.08192 -3.86308,-2.04 -4.79954,-2.98393 -5.33806,-5.38071 -0.42465,-1.89 0.14922,-3.50946 1.76429,-4.97881 1.46491,-1.33274 3.16392,-1.83701 6.10467,-1.81186 3.27356,0.028 5.06408,0.64587 5.22796,1.80408 0.20577,1.45431 -0.40399,1.65225 -2.5202,0.81812 -3.53134,-1.39192 -7.04333,-0.64051 -7.93209,1.69712 -0.89668,2.35844 0.51118,3.9293 6.06989,6.77265 4.59671,2.35128 5.63242,3.50805 5.63242,6.29084 0,4.87761 -5.54828,7.9707 -11.58569,6.45887 z"
         id="path6"
         sodipodi:nodetypes="ccsssscssssccssssscccssssssscccsssscccccssccscscsscccsssccccsssssssssssssss" /><path
         d="m 287.93015,-349.49207 c -3.34988,-0.83885 -3.86993,-1.38207 -3.70541,-3.87035 0.16599,-2.51081 0.92095,-2.89306 2.02445,-1.025 1.07539,1.82045 3.18927,2.78283 6.11262,2.78283 3.82477,0 6.44093,-1.91581 6.44093,-4.71669 0,-2.78235 -1.31591,-4.04862 -7.72363,-7.43235 -4.72083,-2.49296 -5.86521,-3.64648 -6.52331,-6.57544 -0.51893,-2.30965 0.18235,-4.2887 2.15605,-6.0843 1.79016,-1.62866 3.86644,-2.24489 7.46013,-2.21417 4.00041,0.0342 6.18849,0.78929 6.3888,2.20467 0.25142,1.77722 -0.49371,2.01911 -3.07982,0.99977 -4.31543,-1.70099 -8.60722,-0.78274 -9.69331,2.07394 -1.09577,2.88212 0.62468,4.80176 7.41764,8.27644 5.61736,2.87336 6.88303,4.28698 6.88303,7.68765 0,5.96064 -6.78021,9.7405 -14.15817,7.893 z"
         style="fill:#333333;fill-opacity:1;stroke-width:1.22205"
         id="path1-5-5" /><path
         d="m 308.37668,-378.66733 v -1.12546 h 4.68945 4.68944 v 1.12546 1.12547 h -4.68944 -4.68945 z"
         style="fill:#333333;fill-opacity:1;stroke-width:1.41791"
         id="path7" /><text
         xml:space="preserve"
         style="font-style:normal;font-variant:normal;font-weight:normal;font-stretch:normal;font-size:8.16797px;line-height:0;font-family:Serif;-inkscape-font-specification:Serif;text-align:center;letter-spacing:0px;text-anchor:middle;fill:#333333;fill-opacity:1;stroke-width:6.126"
         x="272.93341"
         y="-341.01059"
         id="text7"><tspan
           sodipodi:role="line"
           id="tspan7"
           x="272.93341"
           y="-341.01059"
           style="fill:#333333;fill-opacity:1;stroke-width:6.126">Agência de Marketing</tspan></text></g></g></svg>
